<svg xmlns="http://www.w3.org/2000/svg" xmlns:xlink="http://www.w3.org/1999/xlink" width="2245" zoomAndPan="magnify" viewBox="0 0 1683.75 2384.249956" height="3179" preserveAspectRatio="xMidYMid meet" version="1.0"><defs><filter x="0%" y="0%" width="100%" height="100%" id="b9bff9aecf"><feColorMatrix values="0 0 0 0 1 0 0 0 0 1 0 0 0 0 1 0 0 0 1 0" color-interpolation-filters="sRGB"/></filter><mask id="ec879b50f9"><g filter="url(#b9bff9aecf)"><rect x="-168.375" width="2020.5" fill="#000000" y="-238.424996" height="2861.099947" fill-opacity="0.1"/></g></mask><clipPath id="04ec05fdad"><path d="M 0.535156 1 L 124 1 L 124 211.175781 L 0.535156 211.175781 Z M 0.535156 1 " clip-rule="nonzero"/></clipPath><clipPath id="d7b5730426"><rect x="0" width="126" y="0" height="212"/></clipPath><mask id="27dd84b2e8"><g filter="url(#b9bff9aecf)"><rect x="-168.375" width="2020.5" fill="#000000" y="-238.424996" height="2861.099947" fill-opacity="0.1"/></g></mask><clipPath id="486074a064"><path d="M 1 1 L 125 1 L 125 211.175781 L 1 211.175781 Z M 1 1 " clip-rule="nonzero"/></clipPath><clipPath id="965f96b52b"><rect x="0" width="126" y="0" height="212"/></clipPath><mask id="a64abc0d2f"><g filter="url(#b9bff9aecf)"><rect x="-168.375" width="2020.5" fill="#000000" y="-238.424996" height="2861.099947" fill-opacity="0.65"/></g></mask><clipPath id="9e60fb13fa"><path d="M 1 1 L 1084.929688 1 L 1084.929688 1057.878906 L 1 1057.878906 Z M 1 1 " clip-rule="nonzero"/></clipPath><clipPath id="3da73f0d5e"><rect x="0" width="1085" y="0" height="1058"/></clipPath><mask id="f1785585a1"><g filter="url(#b9bff9aecf)"><rect x="-168.375" width="2020.5" fill="#000000" y="-238.424996" height="2861.099947" fill-opacity="0.1"/></g></mask><clipPath id="7d78018034"><rect x="0" width="1190" y="0" height="1090"/></clipPath><mask id="80f899e557"><g filter="url(#b9bff9aecf)"><rect x="-168.375" width="2020.5" fill="#000000" y="-238.424996" height="2861.099947" fill-opacity="0.15"/></g></mask><clipPath id="d596e9f4ef"><rect x="0" width="890" y="0" height="353"/></clipPath><clipPath id="d9c2b748b7"><path d="M 1511 1187 L 1683.359375 1187 L 1683.359375 1625 L 1511 1625 Z M 1511 1187 " clip-rule="nonzero"/></clipPath><clipPath id="dbce19e5bc"><path d="M 0.140625 1187 L 172 1187 L 172 1625 L 0.140625 1625 Z M 0.140625 1187 " clip-rule="nonzero"/></clipPath><clipPath id="6ed3268714"><path d="M 104 832 L 1580 832 L 1580 1977.726562 L 104 1977.726562 Z M 104 832 " clip-rule="nonzero"/></clipPath></defs><path fill="#01b5ff" d="M 1537.492188 1199.753906 C 1504.246094 1088.75 1432.601562 994.417969 1338.027344 932.039062 L 1338.027344 528.050781 C 1338.027344 513.195312 1354.9375 504.742188 1366.78125 513.671875 L 1398.640625 537.699219 C 1433.21875 563.730469 1456.625 601.890625 1464.171875 644.449219 Z M 1537.492188 1199.753906 " fill-opacity="1" fill-rule="nonzero"/><path fill="#01b5ff" d="M 345.496094 528.050781 L 345.496094 932.035156 C 250.921875 994.414062 179.277344 1088.75 146.035156 1199.753906 L 219.351562 644.449219 C 226.898438 601.890625 250.300781 563.730469 284.882812 537.699219 L 316.742188 513.671875 C 328.585938 504.742188 345.496094 513.195312 345.496094 528.050781 Z M 345.496094 528.050781 " fill-opacity="1" fill-rule="nonzero"/><path fill="#fdac26" d="M 1661.867188 1295.902344 L 1661.867188 1516 C 1661.867188 1564.050781 1622.941406 1603.023438 1574.886719 1603.023438 L 1538.96875 1603.023438 L 1538.96875 1602.5 C 1551.390625 1559.464844 1558.027344 1513.992188 1558.027344 1466.945312 L 1558.027344 1340.273438 C 1558.027344 1294.757812 1551.816406 1250.71875 1540.164062 1208.925781 L 1574.886719 1208.925781 C 1622.941406 1208.925781 1661.867188 1247.851562 1661.867188 1295.902344 Z M 1661.867188 1295.902344 " fill-opacity="1" fill-rule="nonzero"/><path fill="#fdac26" d="M 1661.867188 1295.902344 L 1661.867188 1516 C 1661.867188 1564.050781 1622.941406 1603.023438 1574.886719 1603.023438 L 1538.96875 1603.023438 L 1538.96875 1602.5 C 1551.390625 1559.464844 1558.027344 1513.992188 1558.027344 1466.945312 L 1558.027344 1340.273438 C 1558.027344 1294.757812 1551.816406 1250.71875 1540.164062 1208.925781 L 1574.886719 1208.925781 C 1622.941406 1208.925781 1661.867188 1247.851562 1661.867188 1295.902344 Z M 1661.867188 1295.902344 " fill-opacity="1" fill-rule="nonzero"/><g mask="url(#ec879b50f9)"><g transform="matrix(1, 0, 0, 1, 1538, 1392)"><g clip-path="url(#d7b5730426)"><g clip-path="url(#04ec05fdad)"><path fill="#0f0f0f" d="M 123.867188 124 L 123.867188 31.539062 C 107.929688 13.417969 84.632812 1.925781 58.59375 1.925781 L 20.027344 1.925781 L 20.027344 74.945312 C 20.027344 121.996094 13.390625 167.464844 0.972656 210.5 L 0.972656 211.027344 L 36.890625 211.027344 C 84.941406 211.023438 123.867188 172.050781 123.867188 124 Z M 123.867188 124 " fill-opacity="1" fill-rule="nonzero"/></g></g></g></g><path fill="#fdac26" d="M 144.550781 1602.5 L 144.550781 1603.023438 L 108.632812 1603.023438 C 60.582031 1603.023438 21.65625 1564.046875 21.65625 1516 L 21.65625 1295.902344 C 21.65625 1247.851562 60.582031 1208.925781 108.632812 1208.925781 L 143.355469 1208.925781 C 131.703125 1250.71875 125.492188 1294.757812 125.492188 1340.273438 L 125.492188 1466.945312 C 125.496094 1513.992188 132.132812 1559.464844 144.550781 1602.5 Z M 144.550781 1602.5 " fill-opacity="1" fill-rule="nonzero"/><g mask="url(#27dd84b2e8)"><g transform="matrix(1, 0, 0, 1, 20, 1392)"><g clip-path="url(#965f96b52b)"><g clip-path="url(#486074a064)"><path fill="#0f0f0f" d="M 1.65625 124 L 1.65625 31.539062 C 17.59375 13.417969 40.890625 1.925781 66.929688 1.925781 L 105.496094 1.925781 L 105.496094 74.945312 C 105.496094 121.996094 112.132812 167.464844 124.550781 210.5 L 124.550781 211.027344 L 88.632812 211.027344 C 40.582031 211.023438 1.65625 172.050781 1.65625 124 Z M 1.65625 124 " fill-opacity="1" fill-rule="nonzero"/></g></g></g></g><path fill="#fdac26" d="M 1069.253906 1955.675781 L 614.269531 1955.675781 C 344.339844 1955.675781 125.519531 1736.855469 125.519531 1466.925781 L 125.519531 1340.296875 C 125.519531 1070.367188 344.339844 851.546875 614.269531 851.546875 L 1069.253906 851.546875 C 1339.1875 851.546875 1558.007812 1070.367188 1558.007812 1340.296875 L 1558.007812 1466.925781 C 1558.003906 1736.855469 1339.183594 1955.675781 1069.253906 1955.675781 Z M 1069.253906 1955.675781 " fill-opacity="1" fill-rule="nonzero"/><g mask="url(#a64abc0d2f)"><g transform="matrix(1, 0, 0, 1, 474, 850)"><g clip-path="url(#3da73f0d5e)"><g clip-path="url(#9e60fb13fa)"><path fill="#dda74f" d="M 595.253906 1.546875 L 140.269531 1.546875 C 92.0625 1.546875 45.496094 8.558594 1.507812 21.5625 C 18.5625 19.839844 35.863281 18.953125 53.371094 18.953125 L 368.101562 18.953125 C 649.644531 18.953125 877.882812 247.191406 877.882812 528.734375 L 877.882812 798.765625 C 877.882812 893.136719 852.210938 981.496094 807.511719 1057.300781 C 971.128906 978.292969 1084.003906 810.792969 1084.003906 616.925781 L 1084.003906 490.296875 C 1084.003906 220.367188 865.1875 1.546875 595.253906 1.546875 Z M 595.253906 1.546875 " fill-opacity="1" fill-rule="nonzero"/></g></g></g></g><g mask="url(#f1785585a1)"><g transform="matrix(1, 0, 0, 1, 124, 867)"><g clip-path="url(#7d78018034)"><path fill="#0f0f0f" d="M 1112.183594 1029.941406 L 683.609375 1029.941406 C 409.53125 1029.941406 187.34375 807.753906 187.34375 533.671875 L 187.34375 378.738281 C 187.34375 227.996094 254.566406 92.96875 360.65625 1.953125 C 153.636719 58.753906 1.519531 248.242188 1.519531 473.296875 L 1.519531 599.925781 C 1.519531 869.851562 220.339844 1088.675781 490.269531 1088.675781 L 945.253906 1088.675781 C 1033.644531 1088.675781 1116.550781 1065.203125 1188.09375 1024.164062 C 1163.347656 1027.964844 1137.996094 1029.941406 1112.183594 1029.941406 Z M 1112.183594 1029.941406 " fill-opacity="1" fill-rule="nonzero"/></g></g></g><path fill="#011168" d="M 933.449219 1247.632812 C 877.515625 1283.601562 806.007812 1283.601562 750.074219 1247.632812 C 654.417969 1186.125 529.941406 1198.859375 452.953125 1279.023438 C 404.210938 1329.78125 374.25 1398.707031 374.25 1474.636719 L 374.25 1582.488281 C 374.25 1678.90625 452.414062 1757.070312 548.832031 1757.070312 L 1134.691406 1757.070312 C 1231.109375 1757.070312 1309.269531 1678.90625 1309.269531 1582.488281 L 1309.269531 1474.636719 C 1309.269531 1398.707031 1279.3125 1329.78125 1230.566406 1279.023438 C 1153.582031 1198.859375 1029.105469 1186.125 933.449219 1247.632812 Z M 933.449219 1247.632812 " fill-opacity="1" fill-rule="nonzero"/><g mask="url(#80f899e557)"><g transform="matrix(1, 0, 0, 1, 397, 1231)"><g clip-path="url(#d596e9f4ef)"><path fill="#dda74f" d="M 667.347656 1.796875 C 625.695312 1.796875 584.898438 13.878906 549.367188 36.722656 C 518.0625 56.855469 481.890625 67.496094 444.761719 67.496094 C 407.636719 67.496094 371.464844 56.855469 340.160156 36.722656 C 304.628906 13.875 263.832031 1.796875 222.179688 1.796875 C 164.96875 1.796875 112.054688 24.089844 73.183594 64.566406 C 26.71875 112.949219 1.132812 176.542969 1.132812 243.636719 L 1.132812 319.613281 C 182.808594 362.179688 706.71875 362.179688 888.394531 319.613281 L 888.394531 243.636719 C 888.394531 176.542969 862.808594 112.949219 816.347656 64.570312 C 777.472656 24.089844 724.554688 1.796875 667.347656 1.796875 Z M 667.347656 1.796875 " fill-opacity="1" fill-rule="nonzero"/></g></g></g><path fill="#01b5ff" d="M 1148.53125 1475.65625 C 1148.53125 1476.796875 1148.503906 1477.9375 1148.449219 1479.078125 C 1148.394531 1480.214844 1148.308594 1481.351562 1148.199219 1482.488281 C 1148.085938 1483.625 1147.945312 1484.753906 1147.777344 1485.882812 C 1147.609375 1487.011719 1147.417969 1488.136719 1147.195312 1489.253906 C 1146.972656 1490.371094 1146.722656 1491.484375 1146.445312 1492.59375 C 1146.167969 1493.699219 1145.863281 1494.796875 1145.53125 1495.890625 C 1145.199219 1496.980469 1144.84375 1498.0625 1144.457031 1499.136719 C 1144.074219 1500.210938 1143.664062 1501.273438 1143.226562 1502.328125 C 1142.789062 1503.382812 1142.328125 1504.425781 1141.839844 1505.457031 C 1141.355469 1506.488281 1140.839844 1507.507812 1140.304688 1508.511719 C 1139.765625 1509.519531 1139.203125 1510.511719 1138.617188 1511.488281 C 1138.03125 1512.46875 1137.421875 1513.429688 1136.785156 1514.378906 C 1136.152344 1515.328125 1135.496094 1516.257812 1134.816406 1517.175781 C 1134.136719 1518.09375 1133.4375 1518.992188 1132.710938 1519.871094 C 1131.988281 1520.753906 1131.242188 1521.617188 1130.476562 1522.464844 C 1129.710938 1523.308594 1128.925781 1524.132812 1128.117188 1524.941406 C 1127.3125 1525.746094 1126.488281 1526.535156 1125.640625 1527.300781 C 1124.796875 1528.066406 1123.933594 1528.808594 1123.050781 1529.535156 C 1122.167969 1530.257812 1121.269531 1530.960938 1120.355469 1531.640625 C 1119.4375 1532.316406 1118.503906 1532.976562 1117.558594 1533.609375 C 1116.609375 1534.242188 1115.644531 1534.851562 1114.667969 1535.4375 C 1113.6875 1536.023438 1112.695312 1536.585938 1111.691406 1537.125 C 1110.683594 1537.664062 1109.664062 1538.175781 1108.632812 1538.664062 C 1107.601562 1539.152344 1106.5625 1539.613281 1105.507812 1540.050781 C 1104.453125 1540.484375 1103.390625 1540.894531 1102.316406 1541.28125 C 1101.242188 1541.664062 1100.160156 1542.023438 1099.066406 1542.355469 C 1097.976562 1542.683594 1096.875 1542.988281 1095.769531 1543.265625 C 1094.664062 1543.542969 1093.550781 1543.792969 1092.433594 1544.015625 C 1091.3125 1544.238281 1090.191406 1544.433594 1089.0625 1544.601562 C 1087.933594 1544.769531 1086.800781 1544.90625 1085.667969 1545.019531 C 1084.53125 1545.132812 1083.394531 1545.214844 1082.253906 1545.269531 C 1081.117188 1545.328125 1079.976562 1545.355469 1078.835938 1545.355469 C 1077.695312 1545.355469 1076.554688 1545.328125 1075.414062 1545.269531 C 1074.277344 1545.214844 1073.136719 1545.132812 1072.003906 1545.019531 C 1070.867188 1544.90625 1069.738281 1544.769531 1068.609375 1544.601562 C 1067.480469 1544.433594 1066.355469 1544.238281 1065.238281 1544.015625 C 1064.117188 1543.792969 1063.007812 1543.542969 1061.898438 1543.265625 C 1060.792969 1542.988281 1059.695312 1542.683594 1058.601562 1542.355469 C 1057.511719 1542.023438 1056.429688 1541.664062 1055.355469 1541.28125 C 1054.28125 1540.894531 1053.214844 1540.484375 1052.164062 1540.050781 C 1051.109375 1539.613281 1050.066406 1539.152344 1049.035156 1538.664062 C 1048.003906 1538.175781 1046.984375 1537.664062 1045.980469 1537.125 C 1044.972656 1536.585938 1043.980469 1536.023438 1043.003906 1535.4375 C 1042.023438 1534.851562 1041.0625 1534.242188 1040.113281 1533.609375 C 1039.164062 1532.976562 1038.230469 1532.316406 1037.316406 1531.640625 C 1036.398438 1530.960938 1035.5 1530.257812 1034.617188 1529.535156 C 1033.738281 1528.808594 1032.875 1528.066406 1032.027344 1527.300781 C 1031.183594 1526.535156 1030.359375 1525.746094 1029.550781 1524.941406 C 1028.746094 1524.132812 1027.957031 1523.308594 1027.191406 1522.464844 C 1026.425781 1521.617188 1025.679688 1520.753906 1024.957031 1519.871094 C 1024.234375 1518.992188 1023.53125 1518.09375 1022.851562 1517.175781 C 1022.171875 1516.257812 1021.515625 1515.328125 1020.882812 1514.378906 C 1020.25 1513.429688 1019.640625 1512.46875 1019.054688 1511.488281 C 1018.464844 1510.511719 1017.90625 1509.519531 1017.367188 1508.511719 C 1016.828125 1507.507812 1016.316406 1506.488281 1015.828125 1505.457031 C 1015.339844 1504.425781 1014.878906 1503.382812 1014.441406 1502.328125 C 1014.003906 1501.273438 1013.59375 1500.210938 1013.210938 1499.136719 C 1012.828125 1498.0625 1012.46875 1496.980469 1012.136719 1495.890625 C 1011.808594 1494.796875 1011.503906 1493.699219 1011.226562 1492.59375 C 1010.949219 1491.484375 1010.699219 1490.371094 1010.476562 1489.253906 C 1010.253906 1488.136719 1010.058594 1487.011719 1009.890625 1485.882812 C 1009.722656 1484.753906 1009.585938 1483.625 1009.472656 1482.488281 C 1009.359375 1481.351562 1009.277344 1480.214844 1009.222656 1479.078125 C 1009.164062 1477.9375 1009.136719 1476.796875 1009.136719 1475.65625 C 1009.136719 1474.515625 1009.164062 1473.375 1009.222656 1472.238281 C 1009.277344 1471.097656 1009.359375 1469.960938 1009.472656 1468.824219 C 1009.585938 1467.691406 1009.722656 1466.558594 1009.890625 1465.429688 C 1010.058594 1464.300781 1010.253906 1463.179688 1010.476562 1462.058594 C 1010.699219 1460.941406 1010.949219 1459.828125 1011.226562 1458.722656 C 1011.503906 1457.613281 1011.808594 1456.515625 1012.136719 1455.425781 C 1012.46875 1454.332031 1012.828125 1453.25 1013.210938 1452.175781 C 1013.59375 1451.101562 1014.003906 1450.039062 1014.441406 1448.984375 C 1014.878906 1447.929688 1015.339844 1446.886719 1015.828125 1445.855469 C 1016.316406 1444.824219 1016.828125 1443.808594 1017.367188 1442.800781 C 1017.90625 1441.796875 1018.464844 1440.804688 1019.054688 1439.824219 C 1019.640625 1438.847656 1020.25 1437.882812 1020.882812 1436.933594 C 1021.515625 1435.984375 1022.171875 1435.054688 1022.851562 1434.136719 C 1023.53125 1433.222656 1024.234375 1432.324219 1024.957031 1431.441406 C 1025.679688 1430.558594 1026.425781 1429.695312 1027.191406 1428.851562 C 1027.957031 1428.003906 1028.746094 1427.179688 1029.550781 1426.371094 C 1030.359375 1425.566406 1031.183594 1424.78125 1032.027344 1424.015625 C 1032.875 1423.246094 1033.738281 1422.503906 1034.617188 1421.78125 C 1035.5 1421.054688 1036.398438 1420.355469 1037.316406 1419.675781 C 1038.230469 1418.996094 1039.164062 1418.339844 1040.113281 1417.703125 C 1041.0625 1417.070312 1042.023438 1416.460938 1043.003906 1415.875 C 1043.980469 1415.289062 1044.972656 1414.726562 1045.980469 1414.1875 C 1046.984375 1413.652344 1048.003906 1413.136719 1049.035156 1412.648438 C 1050.066406 1412.164062 1051.109375 1411.699219 1052.164062 1411.265625 C 1053.214844 1410.828125 1054.28125 1410.417969 1055.355469 1410.03125 C 1056.429688 1409.648438 1057.511719 1409.289062 1058.601562 1408.960938 C 1059.695312 1408.628906 1060.792969 1408.324219 1061.898438 1408.046875 C 1063.007812 1407.769531 1064.117188 1407.519531 1065.238281 1407.296875 C 1066.355469 1407.074219 1067.480469 1406.878906 1068.609375 1406.714844 C 1069.738281 1406.546875 1070.867188 1406.40625 1072.003906 1406.292969 C 1073.136719 1406.183594 1074.277344 1406.097656 1075.414062 1406.042969 C 1076.554688 1405.988281 1077.695312 1405.957031 1078.835938 1405.957031 C 1079.976562 1405.957031 1081.117188 1405.988281 1082.253906 1406.042969 C 1083.394531 1406.097656 1084.53125 1406.183594 1085.667969 1406.292969 C 1086.800781 1406.40625 1087.933594 1406.546875 1089.0625 1406.714844 C 1090.191406 1406.878906 1091.3125 1407.074219 1092.433594 1407.296875 C 1093.550781 1407.519531 1094.664062 1407.769531 1095.769531 1408.046875 C 1096.875 1408.324219 1097.976562 1408.628906 1099.066406 1408.960938 C 1100.160156 1409.289062 1101.242188 1409.648438 1102.316406 1410.03125 C 1103.390625 1410.417969 1104.453125 1410.828125 1105.507812 1411.265625 C 1106.5625 1411.699219 1107.601562 1412.164062 1108.632812 1412.652344 C 1109.664062 1413.136719 1110.683594 1413.652344 1111.691406 1414.1875 C 1112.695312 1414.726562 1113.6875 1415.289062 1114.667969 1415.875 C 1115.644531 1416.460938 1116.609375 1417.070312 1117.558594 1417.703125 C 1118.503906 1418.339844 1119.4375 1418.996094 1120.355469 1419.675781 C 1121.269531 1420.355469 1122.167969 1421.054688 1123.050781 1421.78125 C 1123.933594 1422.503906 1124.796875 1423.246094 1125.640625 1424.015625 C 1126.488281 1424.78125 1127.3125 1425.566406 1128.117188 1426.371094 C 1128.925781 1427.179688 1129.710938 1428.003906 1130.476562 1428.851562 C 1131.242188 1429.695312 1131.988281 1430.558594 1132.710938 1431.441406 C 1133.4375 1432.324219 1134.136719 1433.222656 1134.816406 1434.136719 C 1135.496094 1435.054688 1136.152344 1435.984375 1136.785156 1436.933594 C 1137.421875 1437.882812 1138.03125 1438.847656 1138.617188 1439.824219 C 1139.203125 1440.804688 1139.765625 1441.796875 1140.304688 1442.800781 C 1140.839844 1443.808594 1141.355469 1444.824219 1141.839844 1445.855469 C 1142.328125 1446.886719 1142.789062 1447.929688 1143.226562 1448.984375 C 1143.664062 1450.039062 1144.074219 1451.101562 1144.457031 1452.175781 C 1144.84375 1453.25 1145.199219 1454.332031 1145.53125 1455.425781 C 1145.863281 1456.515625 1146.167969 1457.613281 1146.445312 1458.722656 C 1146.722656 1459.828125 1146.972656 1460.941406 1147.195312 1462.058594 C 1147.417969 1463.179688 1147.609375 1464.300781 1147.777344 1465.429688 C 1147.945312 1466.558594 1148.085938 1467.691406 1148.199219 1468.824219 C 1148.308594 1469.960938 1148.394531 1471.097656 1148.449219 1472.238281 C 1148.503906 1473.375 1148.53125 1474.515625 1148.53125 1475.65625 Z M 1148.53125 1475.65625 " fill-opacity="1" fill-rule="nonzero"/><path fill="#01b5ff" d="M 674.386719 1475.660156 C 674.386719 1476.800781 674.359375 1477.941406 674.304688 1479.078125 C 674.246094 1480.21875 674.164062 1481.355469 674.050781 1482.492188 C 673.9375 1483.625 673.800781 1484.757812 673.632812 1485.886719 C 673.464844 1487.015625 673.269531 1488.140625 673.046875 1489.257812 C 672.824219 1490.375 672.574219 1491.488281 672.296875 1492.59375 C 672.019531 1493.703125 671.714844 1494.800781 671.386719 1495.890625 C 671.054688 1496.984375 670.695312 1498.066406 670.3125 1499.140625 C 669.929688 1500.214844 669.519531 1501.277344 669.082031 1502.332031 C 668.644531 1503.386719 668.183594 1504.429688 667.695312 1505.460938 C 667.207031 1506.492188 666.695312 1507.507812 666.15625 1508.515625 C 665.617188 1509.519531 665.058594 1510.511719 664.46875 1511.492188 C 663.882812 1512.46875 663.273438 1513.433594 662.640625 1514.382812 C 662.007812 1515.332031 661.351562 1516.261719 660.671875 1517.179688 C 659.992188 1518.09375 659.289062 1518.996094 658.566406 1519.875 C 657.84375 1520.757812 657.097656 1521.621094 656.332031 1522.464844 C 655.566406 1523.3125 654.777344 1524.136719 653.972656 1524.945312 C 653.164062 1525.75 652.339844 1526.535156 651.496094 1527.304688 C 650.648438 1528.070312 649.785156 1528.8125 648.90625 1529.539062 C 648.023438 1530.261719 647.125 1530.960938 646.207031 1531.640625 C 645.292969 1532.320312 644.359375 1532.976562 643.410156 1533.613281 C 642.460938 1534.246094 641.5 1534.855469 640.519531 1535.441406 C 639.542969 1536.027344 638.550781 1536.589844 637.542969 1537.128906 C 636.539062 1537.664062 635.519531 1538.179688 634.488281 1538.667969 C 633.457031 1539.152344 632.414062 1539.617188 631.359375 1540.050781 C 630.308594 1540.488281 629.242188 1540.898438 628.167969 1541.285156 C 627.09375 1541.667969 626.011719 1542.027344 624.921875 1542.355469 C 623.828125 1542.6875 622.730469 1542.992188 621.625 1543.269531 C 620.515625 1543.546875 619.40625 1543.796875 618.285156 1544.019531 C 617.167969 1544.242188 616.042969 1544.4375 614.914062 1544.605469 C 613.789062 1544.769531 612.65625 1544.910156 611.519531 1545.023438 C 610.386719 1545.132812 609.246094 1545.21875 608.109375 1545.273438 C 606.96875 1545.332031 605.828125 1545.359375 604.6875 1545.359375 C 603.546875 1545.359375 602.40625 1545.332031 601.269531 1545.273438 C 600.128906 1545.21875 598.992188 1545.132812 597.855469 1545.023438 C 596.722656 1544.910156 595.589844 1544.769531 594.460938 1544.605469 C 593.332031 1544.4375 592.210938 1544.242188 591.089844 1544.019531 C 589.972656 1543.796875 588.859375 1543.546875 587.753906 1543.269531 C 586.648438 1542.992188 585.546875 1542.6875 584.457031 1542.355469 C 583.363281 1542.027344 582.28125 1541.667969 581.207031 1541.285156 C 580.132812 1540.898438 579.070312 1540.488281 578.015625 1540.050781 C 576.960938 1539.617188 575.917969 1539.152344 574.890625 1538.667969 C 573.859375 1538.179688 572.839844 1537.664062 571.832031 1537.128906 C 570.828125 1536.589844 569.835938 1536.027344 568.855469 1535.441406 C 567.878906 1534.855469 566.914062 1534.246094 565.964844 1533.613281 C 565.019531 1532.976562 564.085938 1532.320312 563.167969 1531.640625 C 562.253906 1530.960938 561.355469 1530.261719 560.472656 1529.539062 C 559.589844 1528.8125 558.726562 1528.070312 557.882812 1527.304688 C 557.035156 1526.535156 556.210938 1525.75 555.40625 1524.945312 C 554.597656 1524.136719 553.8125 1523.3125 553.046875 1522.464844 C 552.28125 1521.621094 551.535156 1520.757812 550.8125 1519.875 C 550.085938 1518.996094 549.386719 1518.09375 548.707031 1517.179688 C 548.027344 1516.261719 547.371094 1515.332031 546.738281 1514.382812 C 546.101562 1513.433594 545.492188 1512.46875 544.90625 1511.492188 C 544.320312 1510.511719 543.757812 1509.519531 543.21875 1508.515625 C 542.683594 1507.507812 542.171875 1506.492188 541.683594 1505.460938 C 541.195312 1504.429688 540.730469 1503.386719 540.296875 1502.332031 C 539.859375 1501.277344 539.449219 1500.214844 539.066406 1499.140625 C 538.679688 1498.066406 538.324219 1496.984375 537.992188 1495.890625 C 537.660156 1494.800781 537.355469 1493.703125 537.078125 1492.59375 C 536.800781 1491.488281 536.550781 1490.375 536.328125 1489.257812 C 536.105469 1488.140625 535.914062 1487.015625 535.746094 1485.886719 C 535.578125 1484.757812 535.4375 1483.625 535.328125 1482.492188 C 535.214844 1481.355469 535.128906 1480.21875 535.074219 1479.078125 C 535.019531 1477.941406 534.992188 1476.800781 534.992188 1475.660156 C 534.992188 1474.519531 535.019531 1473.378906 535.074219 1472.238281 C 535.128906 1471.101562 535.214844 1469.964844 535.328125 1468.828125 C 535.4375 1467.691406 535.578125 1466.5625 535.746094 1465.433594 C 535.914062 1464.304688 536.105469 1463.179688 536.328125 1462.0625 C 536.550781 1460.945312 536.800781 1459.832031 537.078125 1458.726562 C 537.355469 1457.617188 537.660156 1456.519531 537.992188 1455.425781 C 538.324219 1454.335938 538.679688 1453.253906 539.066406 1452.179688 C 539.449219 1451.105469 539.859375 1450.042969 540.296875 1448.988281 C 540.730469 1447.933594 541.195312 1446.890625 541.683594 1445.859375 C 542.171875 1444.828125 542.683594 1443.808594 543.21875 1442.804688 C 543.757812 1441.796875 544.320312 1440.804688 544.90625 1439.828125 C 545.492188 1438.847656 546.101562 1437.886719 546.738281 1436.9375 C 547.371094 1435.988281 548.027344 1435.058594 548.707031 1434.140625 C 549.386719 1433.226562 550.085938 1432.324219 550.8125 1431.445312 C 551.535156 1430.5625 552.28125 1429.699219 553.046875 1428.855469 C 553.8125 1428.007812 554.597656 1427.183594 555.40625 1426.375 C 556.210938 1425.570312 557.035156 1424.785156 557.882812 1424.015625 C 558.726562 1423.25 559.589844 1422.507812 560.472656 1421.78125 C 561.355469 1421.058594 562.253906 1420.359375 563.167969 1419.679688 C 564.085938 1419 565.019531 1418.34375 565.964844 1417.707031 C 566.914062 1417.074219 567.878906 1416.464844 568.855469 1415.878906 C 569.835938 1415.292969 570.828125 1414.730469 571.832031 1414.191406 C 572.839844 1413.652344 573.859375 1413.140625 574.890625 1412.652344 C 575.917969 1412.167969 576.960938 1411.703125 578.015625 1411.265625 C 579.070312 1410.832031 580.132812 1410.421875 581.207031 1410.035156 C 582.28125 1409.652344 583.363281 1409.292969 584.457031 1408.964844 C 585.546875 1408.632812 586.648438 1408.328125 587.753906 1408.050781 C 588.859375 1407.773438 589.972656 1407.523438 591.089844 1407.300781 C 592.210938 1407.078125 593.332031 1406.882812 594.460938 1406.714844 C 595.589844 1406.550781 596.722656 1406.410156 597.855469 1406.296875 C 598.992188 1406.1875 600.128906 1406.101562 601.269531 1406.046875 C 602.40625 1405.988281 603.546875 1405.960938 604.6875 1405.960938 C 605.828125 1405.960938 606.96875 1405.988281 608.109375 1406.046875 C 609.246094 1406.101562 610.386719 1406.1875 611.519531 1406.296875 C 612.65625 1406.410156 613.789062 1406.550781 614.914062 1406.714844 C 616.042969 1406.882812 617.167969 1407.078125 618.285156 1407.300781 C 619.40625 1407.523438 620.515625 1407.773438 621.625 1408.050781 C 622.730469 1408.328125 623.828125 1408.632812 624.921875 1408.964844 C 626.011719 1409.292969 627.09375 1409.652344 628.167969 1410.035156 C 629.242188 1410.421875 630.308594 1410.832031 631.359375 1411.265625 C 632.414062 1411.703125 633.457031 1412.167969 634.488281 1412.652344 C 635.519531 1413.140625 636.539062 1413.652344 637.542969 1414.191406 C 638.550781 1414.730469 639.542969 1415.292969 640.519531 1415.878906 C 641.5 1416.464844 642.460938 1417.074219 643.410156 1417.707031 C 644.359375 1418.34375 645.292969 1419 646.207031 1419.679688 C 647.125 1420.359375 648.023438 1421.058594 648.90625 1421.78125 C 649.785156 1422.507812 650.648438 1423.25 651.496094 1424.015625 C 652.339844 1424.785156 653.164062 1425.570312 653.972656 1426.375 C 654.777344 1427.183594 655.566406 1428.007812 656.332031 1428.855469 C 657.097656 1429.699219 657.84375 1430.5625 658.566406 1431.445312 C 659.289062 1432.324219 659.992188 1433.226562 660.671875 1434.140625 C 661.351562 1435.058594 662.007812 1435.988281 662.640625 1436.9375 C 663.273438 1437.886719 663.882812 1438.847656 664.46875 1439.828125 C 665.058594 1440.804688 665.617188 1441.796875 666.15625 1442.804688 C 666.695312 1443.808594 667.207031 1444.828125 667.695312 1445.859375 C 668.183594 1446.890625 668.644531 1447.933594 669.082031 1448.988281 C 669.519531 1450.042969 669.929688 1451.105469 670.3125 1452.179688 C 670.695312 1453.253906 671.054688 1454.335938 671.386719 1455.425781 C 671.714844 1456.519531 672.019531 1457.617188 672.296875 1458.726562 C 672.574219 1459.832031 672.824219 1460.945312 673.046875 1462.0625 C 673.269531 1463.179688 673.464844 1464.304688 673.632812 1465.433594 C 673.800781 1466.5625 673.9375 1467.691406 674.050781 1468.828125 C 674.164062 1469.964844 674.246094 1471.101562 674.304688 1472.238281 C 674.359375 1473.378906 674.386719 1474.519531 674.386719 1475.660156 Z M 674.386719 1475.660156 " fill-opacity="1" fill-rule="nonzero"/><path fill="#01b5ff" d="M 1099.34375 806.785156 L 584.183594 806.785156 C 559.027344 806.785156 540.050781 829.621094 544.65625 854.347656 L 562.921875 952.460938 C 575.871094 1022.003906 636.558594 1072.4375 707.296875 1072.4375 L 976.222656 1072.4375 C 1046.960938 1072.4375 1107.652344 1022.003906 1120.597656 952.460938 L 1138.863281 854.347656 C 1143.46875 829.621094 1124.496094 806.785156 1099.34375 806.785156 Z M 1099.34375 806.785156 " fill-opacity="1" fill-rule="nonzero"/><path fill="#011168" d="M 1516.878906 1205.925781 C 1485.558594 1101.339844 1417.832031 1010.449219 1326.179688 950 L 1316.511719 943.621094 L 1316.511719 528.050781 C 1316.511719 512.953125 1324.894531 499.398438 1338.386719 492.675781 C 1351.863281 485.960938 1367.703125 487.421875 1379.734375 496.496094 L 1411.59375 520.519531 C 1450.625 549.898438 1476.824219 592.578125 1485.355469 640.695312 L 1485.503906 641.632812 L 1558.820312 1196.9375 Z M 1359.542969 920.617188 C 1414.808594 958.902344 1461.675781 1007.492188 1497.753906 1063.164062 L 1442.910156 647.757812 C 1436.199219 610.582031 1415.898438 577.617188 1385.703125 554.886719 L 1359.542969 535.164062 Z M 1359.542969 920.617188 " fill-opacity="1" fill-rule="nonzero"/><path fill="#011168" d="M 166.644531 1205.925781 L 124.703125 1196.9375 L 198.082031 641.164062 L 198.167969 640.695312 C 206.699219 592.582031 232.898438 549.898438 271.941406 520.511719 L 303.789062 496.496094 C 315.816406 487.425781 331.660156 485.964844 345.136719 492.675781 C 358.628906 499.402344 367.011719 512.957031 367.011719 528.050781 L 367.011719 943.621094 L 357.34375 950 C 265.691406 1010.449219 197.964844 1101.339844 166.644531 1205.925781 Z M 240.613281 647.757812 L 185.769531 1063.164062 C 221.847656 1007.496094 268.714844 958.902344 323.980469 920.617188 L 323.980469 535.164062 L 297.835938 554.875 C 267.628906 577.617188 247.324219 610.582031 240.613281 647.757812 Z M 240.613281 647.757812 " fill-opacity="1" fill-rule="nonzero"/><g clip-path="url(#d9c2b748b7)"><path fill="#011168" d="M 1574.886719 1624.539062 L 1517.453125 1624.539062 L 1517.453125 1599.457031 L 1518.296875 1596.535156 C 1530.386719 1554.652344 1536.511719 1511.050781 1536.511719 1466.945312 L 1536.511719 1340.273438 C 1536.511719 1297.578125 1530.765625 1255.332031 1519.4375 1214.703125 L 1511.824219 1187.410156 L 1574.886719 1187.410156 C 1634.710938 1187.410156 1683.382812 1236.078125 1683.382812 1295.902344 L 1683.382812 1515.996094 C 1683.382812 1575.847656 1634.710938 1624.539062 1574.886719 1624.539062 Z M 1566.621094 1581.507812 L 1574.886719 1581.507812 C 1610.984375 1581.507812 1640.351562 1552.121094 1640.351562 1515.996094 L 1640.351562 1295.902344 C 1640.351562 1259.808594 1610.988281 1230.441406 1574.886719 1230.441406 L 1567.683594 1230.441406 C 1575.558594 1266.324219 1579.542969 1303.15625 1579.542969 1340.273438 L 1579.542969 1466.945312 C 1579.546875 1505.707031 1575.203125 1544.125 1566.621094 1581.507812 Z M 1566.621094 1581.507812 " fill-opacity="1" fill-rule="nonzero"/></g><g clip-path="url(#dbce19e5bc)"><path fill="#011168" d="M 166.070312 1624.539062 L 108.636719 1624.539062 C 48.8125 1624.539062 0.140625 1575.847656 0.140625 1516 L 0.140625 1295.902344 C 0.140625 1236.078125 48.8125 1187.410156 108.636719 1187.410156 L 171.695312 1187.410156 L 164.085938 1214.703125 C 152.753906 1255.332031 147.007812 1297.582031 147.007812 1340.273438 L 147.007812 1466.945312 C 147.007812 1511.050781 153.136719 1554.652344 165.222656 1596.535156 L 166.066406 1599.457031 L 166.066406 1624.539062 Z M 108.636719 1230.441406 C 72.539062 1230.441406 43.171875 1259.808594 43.171875 1295.902344 L 43.171875 1515.996094 C 43.171875 1552.121094 72.539062 1581.507812 108.636719 1581.507812 L 116.902344 1581.507812 C 108.320312 1544.125 103.976562 1505.707031 103.976562 1466.945312 L 103.976562 1340.273438 C 103.976562 1303.152344 107.964844 1266.324219 115.839844 1230.4375 L 108.636719 1230.4375 Z M 108.636719 1230.441406 " fill-opacity="1" fill-rule="nonzero"/></g><g clip-path="url(#6ed3268714)"><path fill="#011168" d="M 1069.253906 1977.191406 L 614.269531 1977.191406 C 332.910156 1977.191406 104 1748.285156 104 1466.925781 L 104 1340.296875 C 104 1216.632812 148.808594 1097.34375 230.164062 1004.402344 C 310.742188 912.34375 421.5 852.234375 542.03125 835.144531 L 562.429688 832.25 L 584.078125 948.523438 C 595.121094 1007.855469 646.941406 1050.921875 707.300781 1050.921875 L 976.222656 1050.921875 C 1036.582031 1050.921875 1088.402344 1007.859375 1099.445312 948.523438 L 1121.09375 832.25 L 1141.492188 835.144531 C 1262.023438 852.238281 1372.78125 912.34375 1453.359375 1004.402344 C 1534.714844 1097.34375 1579.523438 1216.636719 1579.523438 1340.296875 L 1579.523438 1466.925781 C 1579.523438 1748.285156 1350.613281 1977.191406 1069.253906 1977.191406 Z M 527.753906 881.09375 C 309.304688 922.066406 147.03125 1115.925781 147.03125 1340.296875 L 147.03125 1466.925781 C 147.03125 1724.558594 356.632812 1934.160156 614.269531 1934.160156 L 1069.253906 1934.160156 C 1326.890625 1934.160156 1536.492188 1724.558594 1536.492188 1466.925781 L 1536.492188 1340.296875 C 1536.492188 1115.925781 1374.21875 922.066406 1155.769531 881.09375 L 1141.75 956.398438 C 1126.914062 1036.101562 1057.300781 1093.949219 976.222656 1093.949219 L 707.300781 1093.949219 C 626.222656 1093.949219 556.609375 1036.101562 541.773438 956.394531 Z M 527.753906 881.09375 " fill-opacity="1" fill-rule="nonzero"/></g><path fill="#011168" d="M 1134.691406 1778.585938 L 548.832031 1778.585938 C 440.703125 1778.585938 352.734375 1690.617188 352.734375 1582.488281 L 352.734375 1474.636719 C 352.734375 1395.757812 382.816406 1320.996094 437.4375 1264.121094 C 521.070312 1177.035156 657.445312 1162.492188 761.714844 1229.539062 C 810.335938 1260.804688 873.183594 1260.800781 921.8125 1229.539062 C 1026.078125 1162.492188 1162.449219 1177.035156 1246.089844 1264.121094 C 1300.707031 1320.996094 1330.789062 1395.757812 1330.789062 1474.636719 L 1330.789062 1582.488281 C 1330.789062 1690.617188 1242.820312 1778.585938 1134.691406 1778.585938 Z M 619.347656 1230.570312 C 563.414062 1230.570312 508.582031 1252.164062 468.472656 1293.929688 C 421.585938 1342.75 395.769531 1406.925781 395.769531 1474.636719 L 395.769531 1582.488281 C 395.769531 1666.886719 464.429688 1735.554688 548.832031 1735.554688 L 1134.691406 1735.554688 C 1219.09375 1735.554688 1287.753906 1666.886719 1287.753906 1582.488281 L 1287.753906 1474.636719 C 1287.753906 1406.925781 1261.9375 1342.746094 1215.050781 1293.929688 C 1145.625 1221.640625 1032.089844 1209.785156 945.085938 1265.730469 C 882.316406 1306.09375 801.203125 1306.09375 738.4375 1265.730469 C 701.699219 1242.109375 660.230469 1230.570312 619.347656 1230.570312 Z M 619.347656 1230.570312 " fill-opacity="1" fill-rule="nonzero"/><path fill="#011168" d="M 976.222656 1093.949219 L 707.300781 1093.949219 C 626.226562 1093.949219 556.613281 1036.101562 541.769531 956.394531 L 523.503906 858.285156 C 520.136719 840.195312 524.949219 821.699219 536.710938 807.542969 C 548.476562 793.386719 565.777344 785.269531 584.183594 785.269531 L 1099.339844 785.269531 C 1117.746094 785.269531 1135.046875 793.386719 1146.808594 807.542969 C 1158.570312 821.699219 1163.382812 840.191406 1160.015625 858.285156 L 1141.75 956.398438 C 1126.910156 1036.101562 1057.296875 1093.949219 976.222656 1093.949219 Z M 584.183594 828.300781 C 576.550781 828.300781 571.902344 832.523438 569.808594 835.042969 C 567.714844 837.5625 564.410156 842.90625 565.8125 850.410156 L 584.074219 948.523438 C 595.121094 1007.855469 646.945312 1050.921875 707.300781 1050.921875 L 976.222656 1050.921875 C 1036.578125 1050.921875 1088.402344 1007.855469 1099.449219 948.523438 L 1117.710938 850.410156 C 1119.113281 842.910156 1115.808594 837.5625 1113.714844 835.046875 C 1111.621094 832.527344 1106.96875 828.300781 1099.339844 828.300781 Z M 584.183594 828.300781 " fill-opacity="1" fill-rule="nonzero"/><path fill="#01b5ff" d="M 842.152344 1692.875 C 841.8125 1692.875 841.476562 1692.875 841.140625 1692.875 C 773.597656 1692.59375 714.644531 1664.886719 683.4375 1618.753906 C 676.78125 1608.914062 679.363281 1595.539062 689.203125 1588.878906 C 699.050781 1582.21875 712.421875 1584.800781 719.078125 1594.644531 C 741.964844 1628.472656 788.804688 1649.625 841.316406 1649.84375 C 841.59375 1649.84375 841.882812 1649.84375 842.160156 1649.84375 C 894.949219 1649.84375 940.652344 1629.191406 964.546875 1594.496094 C 971.289062 1584.707031 984.6875 1582.242188 994.472656 1588.980469 C 1004.253906 1595.722656 1006.726562 1609.117188 999.988281 1618.902344 C 968.054688 1665.265625 909.101562 1692.875 842.152344 1692.875 Z M 842.152344 1692.875 " fill-opacity="1" fill-rule="nonzero"/></svg>