<!DOCTYPE svg PUBLIC "-//W3C//DTD SVG 1.1//EN" "http://www.w3.org/Graphics/SVG/1.1/DTD/svg11.dtd">
<!-- Uploaded to: SVG Repo, www.svgrepo.com, Transformed by: SVG Repo Mixer Tools -->
<svg fill="#ffff" width="800px" height="800px" viewBox="0 0 24 24" xmlns="http://www.w3.org/2000/svg" stroke="#ffff">
<g id="SVGRepo_bgCarrier" stroke-width="0"/>
<g id="SVGRepo_tracerCarrier" stroke-linecap="round" stroke-linejoin="round"/>
<g id="SVGRepo_iconCarrier">
<path d="M5,22H19a1,1,0,0,0,1-1V11a1,1,0,0,0-1-1H5a1,1,0,0,0-1,1V21A1,1,0,0,0,5,22Zm3-7a1,1,0,0,1,2,0v1h4V15a1,1,0,0,1,2,0v2a1,1,0,0,1-1,1H9a1,1,0,0,1-1-1ZM6,6H18a1,1,0,0,1,0,2H6A1,1,0,0,1,6,6ZM8,4A1,1,0,0,1,8,2h8a1,1,0,0,1,0,2Z"/>
</g>
</svg>