<!DOCTYPE svg PUBLIC "-//W3C//DTD SVG 1.1//EN" "http://www.w3.org/Graphics/SVG/1.1/DTD/svg11.dtd">
<!-- Uploaded to: SVG Repo, www.svgrepo.com, Transformed by: SVG Repo Mixer Tools -->
<svg fill="#ffff" width="800px" height="800px" viewBox="0 0 24 24" xmlns="http://www.w3.org/2000/svg" stroke="#ffff">
<g id="SVGRepo_bgCarrier" stroke-width="0"/>
<g id="SVGRepo_tracerCarrier" stroke-linecap="round" stroke-linejoin="round"/>
<g id="SVGRepo_iconCarrier">
<path d="M3,22a1,1,0,0,1-1-1V3A1,1,0,0,1,4,3V21A1,1,0,0,1,3,22ZM8,5v6h7a1,1,0,0,0,1-1V6a1,1,0,0,0-1-1Zm13,8H8v6H21a1,1,0,0,0,1-1V14A1,1,0,0,0,21,13Z"/>
</g>
</svg>