<svg xmlns="http://www.w3.org/2000/svg" xmlns:xlink="http://www.w3.org/1999/xlink" width="2245" zoomAndPan="magnify" viewBox="0 0 1683.75 2384.249956" height="3179" preserveAspectRatio="xMidYMid meet" version="1.0"><defs><filter x="0%" y="0%" width="100%" height="100%" id="1c8a5f8a18"><feColorMatrix values="0 0 0 0 1 0 0 0 0 1 0 0 0 0 1 0 0 0 1 0" color-interpolation-filters="sRGB"/></filter><mask id="7b9f604c98"><g filter="url(#1c8a5f8a18)"><rect x="-168.375" width="2020.5" fill="#000000" y="-238.424996" height="2861.099947" fill-opacity="0.1"/></g></mask><clipPath id="ede1f99b19"><path d="M 0.535156 1 L 124 1 L 124 211.347656 L 0.535156 211.347656 Z M 0.535156 1 " clip-rule="nonzero"/></clipPath><clipPath id="3ae7d2e54c"><rect x="0" width="126" y="0" height="212"/></clipPath><mask id="ce4985316e"><g filter="url(#1c8a5f8a18)"><rect x="-168.375" width="2020.5" fill="#000000" y="-238.424996" height="2861.099947" fill-opacity="0.1"/></g></mask><clipPath id="d1548f8318"><path d="M 1 1 L 125 1 L 125 211.347656 L 1 211.347656 Z M 1 1 " clip-rule="nonzero"/></clipPath><clipPath id="6046406d07"><rect x="0" width="126" y="0" height="212"/></clipPath><mask id="4bd492f10c"><g filter="url(#1c8a5f8a18)"><rect x="-168.375" width="2020.5" fill="#000000" y="-238.424996" height="2861.099947" fill-opacity="0.65"/></g></mask><clipPath id="25983f418c"><path d="M 1 1 L 1084.929688 1 L 1084.929688 1058 L 1 1058 Z M 1 1 " clip-rule="nonzero"/></clipPath><clipPath id="4ebf79670e"><rect x="0" width="1085" y="0" height="1059"/></clipPath><mask id="14b4ebe8ed"><g filter="url(#1c8a5f8a18)"><rect x="-168.375" width="2020.5" fill="#000000" y="-238.424996" height="2861.099947" fill-opacity="0.1"/></g></mask><clipPath id="8da1533daf"><rect x="0" width="1190" y="0" height="1090"/></clipPath><mask id="0d140d4867"><g filter="url(#1c8a5f8a18)"><rect x="-168.375" width="2020.5" fill="#000000" y="-238.424996" height="2861.099947" fill-opacity="0.15"/></g></mask><clipPath id="2d998983cc"><rect x="0" width="890" y="0" height="354"/></clipPath><clipPath id="f06baa8c76"><path d="M 1511 1147 L 1683.359375 1147 L 1683.359375 1585 L 1511 1585 Z M 1511 1147 " clip-rule="nonzero"/></clipPath><clipPath id="478a2eb00e"><path d="M 0.140625 1147 L 172 1147 L 172 1585 L 0.140625 1585 Z M 0.140625 1147 " clip-rule="nonzero"/></clipPath><clipPath id="14f91ba29c"><path d="M 104 792 L 1580 792 L 1580 1937.734375 L 104 1937.734375 Z M 104 792 " clip-rule="nonzero"/></clipPath></defs><path fill="#01b5ff" d="M 1537.492188 1159.761719 C 1504.246094 1048.757812 1432.601562 954.425781 1338.027344 892.042969 L 1338.027344 488.054688 C 1338.027344 473.203125 1354.9375 464.75 1366.78125 473.679688 L 1398.640625 497.703125 C 1433.21875 523.738281 1456.625 561.898438 1464.171875 604.457031 Z M 1537.492188 1159.761719 " fill-opacity="1" fill-rule="nonzero"/><path fill="#01b5ff" d="M 345.496094 488.054688 L 345.496094 892.042969 C 250.921875 954.421875 179.277344 1048.757812 146.035156 1159.757812 L 219.351562 604.457031 C 226.898438 561.898438 250.300781 523.738281 284.882812 497.703125 L 316.742188 473.679688 C 328.585938 464.75 345.496094 473.203125 345.496094 488.054688 Z M 345.496094 488.054688 " fill-opacity="1" fill-rule="nonzero"/><path fill="#82888f" d="M 1661.867188 1255.910156 L 1661.867188 1476.007812 C 1661.867188 1524.058594 1622.941406 1563.03125 1574.886719 1563.03125 L 1538.96875 1563.03125 L 1538.96875 1562.507812 C 1551.390625 1519.46875 1558.027344 1474 1558.027344 1426.949219 L 1558.027344 1300.28125 C 1558.027344 1254.765625 1551.816406 1210.726562 1540.164062 1168.933594 L 1574.886719 1168.933594 C 1622.941406 1168.933594 1661.867188 1207.859375 1661.867188 1255.910156 Z M 1661.867188 1255.910156 " fill-opacity="1" fill-rule="nonzero"/><path fill="#82888f" d="M 1661.867188 1255.910156 L 1661.867188 1476.007812 C 1661.867188 1524.058594 1622.941406 1563.03125 1574.886719 1563.03125 L 1538.96875 1563.03125 L 1538.96875 1562.507812 C 1551.390625 1519.46875 1558.027344 1474 1558.027344 1426.949219 L 1558.027344 1300.28125 C 1558.027344 1254.765625 1551.816406 1210.726562 1540.164062 1168.933594 L 1574.886719 1168.933594 C 1622.941406 1168.933594 1661.867188 1207.859375 1661.867188 1255.910156 Z M 1661.867188 1255.910156 " fill-opacity="1" fill-rule="nonzero"/><g mask="url(#7b9f604c98)"><g transform="matrix(1, 0, 0, 1, 1538, 1352)"><g clip-path="url(#3ae7d2e54c)"><g clip-path="url(#ede1f99b19)"><path fill="#0f0f0f" d="M 123.867188 124.007812 L 123.867188 31.546875 C 107.929688 13.425781 84.632812 1.933594 58.59375 1.933594 L 20.027344 1.933594 L 20.027344 74.953125 C 20.027344 122 13.390625 167.472656 0.972656 210.507812 L 0.972656 211.03125 L 36.890625 211.03125 C 84.941406 211.03125 123.867188 172.054688 123.867188 124.007812 Z M 123.867188 124.007812 " fill-opacity="1" fill-rule="nonzero"/></g></g></g></g><path fill="#82888f" d="M 144.550781 1562.507812 L 144.550781 1563.03125 L 108.632812 1563.03125 C 60.582031 1563.03125 21.65625 1524.054688 21.65625 1476.007812 L 21.65625 1255.910156 C 21.65625 1207.859375 60.582031 1168.929688 108.632812 1168.929688 L 143.355469 1168.929688 C 131.703125 1210.726562 125.492188 1254.761719 125.492188 1300.28125 L 125.492188 1426.949219 C 125.496094 1474 132.132812 1519.46875 144.550781 1562.507812 Z M 144.550781 1562.507812 " fill-opacity="1" fill-rule="nonzero"/><g mask="url(#ce4985316e)"><g transform="matrix(1, 0, 0, 1, 20, 1352)"><g clip-path="url(#6046406d07)"><g clip-path="url(#d1548f8318)"><path fill="#0f0f0f" d="M 1.65625 124.007812 L 1.65625 31.546875 C 17.59375 13.425781 40.890625 1.933594 66.929688 1.933594 L 105.496094 1.933594 L 105.496094 74.953125 C 105.496094 122 112.132812 167.472656 124.550781 210.507812 L 124.550781 211.03125 L 88.632812 211.03125 C 40.582031 211.03125 1.65625 172.054688 1.65625 124.007812 Z M 1.65625 124.007812 " fill-opacity="1" fill-rule="nonzero"/></g></g></g></g><path fill="#82888f" d="M 1069.253906 1915.683594 L 614.269531 1915.683594 C 344.339844 1915.683594 125.519531 1696.859375 125.519531 1426.929688 L 125.519531 1300.304688 C 125.519531 1030.375 344.339844 811.550781 614.269531 811.550781 L 1069.253906 811.550781 C 1339.1875 811.550781 1558.007812 1030.375 1558.007812 1300.304688 L 1558.007812 1426.929688 C 1558.003906 1696.859375 1339.183594 1915.683594 1069.253906 1915.683594 Z M 1069.253906 1915.683594 " fill-opacity="1" fill-rule="nonzero"/><g mask="url(#4bd492f10c)"><g transform="matrix(1, 0, 0, 1, 474, 810)"><g clip-path="url(#4ebf79670e)"><g clip-path="url(#25983f418c)"><path fill="#cccfd1" d="M 595.253906 1.550781 L 140.269531 1.550781 C 92.0625 1.550781 45.496094 8.5625 1.507812 21.570312 C 18.5625 19.84375 35.863281 18.960938 53.371094 18.960938 L 368.101562 18.960938 C 649.644531 18.960938 877.882812 247.199219 877.882812 528.742188 L 877.882812 798.773438 C 877.882812 893.144531 852.210938 981.503906 807.511719 1057.304688 C 971.128906 978.300781 1084.003906 810.800781 1084.003906 616.933594 L 1084.003906 490.304688 C 1084.003906 220.375 865.1875 1.550781 595.253906 1.550781 Z M 595.253906 1.550781 " fill-opacity="1" fill-rule="nonzero"/></g></g></g></g><g mask="url(#14b4ebe8ed)"><g transform="matrix(1, 0, 0, 1, 124, 827)"><g clip-path="url(#8da1533daf)"><path fill="#0f0f0f" d="M 1112.183594 1029.949219 L 683.609375 1029.949219 C 409.53125 1029.949219 187.34375 807.761719 187.34375 533.679688 L 187.34375 378.746094 C 187.34375 228.003906 254.566406 92.976562 360.65625 1.957031 C 153.636719 58.757812 1.519531 248.25 1.519531 473.300781 L 1.519531 599.929688 C 1.519531 869.859375 220.339844 1088.679688 490.269531 1088.679688 L 945.253906 1088.679688 C 1033.644531 1088.679688 1116.550781 1065.210938 1188.09375 1024.171875 C 1163.347656 1027.972656 1137.996094 1029.949219 1112.183594 1029.949219 Z M 1112.183594 1029.949219 " fill-opacity="1" fill-rule="nonzero"/></g></g></g><path fill="#011168" d="M 933.449219 1207.640625 C 877.515625 1243.609375 806.007812 1243.609375 750.074219 1207.640625 C 654.417969 1146.128906 529.941406 1158.867188 452.953125 1239.03125 C 404.210938 1289.785156 374.25 1358.714844 374.25 1434.640625 L 374.25 1542.496094 C 374.25 1638.914062 452.414062 1717.078125 548.832031 1717.078125 L 1134.691406 1717.078125 C 1231.109375 1717.078125 1309.269531 1638.914062 1309.269531 1542.496094 L 1309.269531 1434.640625 C 1309.269531 1358.714844 1279.3125 1289.785156 1230.566406 1239.03125 C 1153.582031 1158.867188 1029.105469 1146.132812 933.449219 1207.640625 Z M 933.449219 1207.640625 " fill-opacity="1" fill-rule="nonzero"/><g mask="url(#0d140d4867)"><g transform="matrix(1, 0, 0, 1, 397, 1190)"><g clip-path="url(#2d998983cc)"><path fill="#cccfd1" d="M 667.347656 2.804688 C 625.695312 2.804688 584.898438 14.882812 549.367188 37.730469 C 518.0625 57.859375 481.890625 68.503906 444.761719 68.503906 C 407.636719 68.503906 371.464844 57.859375 340.160156 37.730469 C 304.628906 14.882812 263.832031 2.804688 222.179688 2.804688 C 164.96875 2.804688 112.054688 25.097656 73.183594 65.574219 C 26.71875 113.953125 1.132812 177.550781 1.132812 244.644531 L 1.132812 320.617188 C 182.808594 363.1875 706.71875 363.1875 888.394531 320.617188 L 888.394531 244.644531 C 888.394531 177.550781 862.808594 113.953125 816.347656 65.578125 C 777.472656 25.097656 724.554688 2.804688 667.347656 2.804688 Z M 667.347656 2.804688 " fill-opacity="1" fill-rule="nonzero"/></g></g></g><path fill="#01b5ff" d="M 1148.53125 1435.664062 C 1148.53125 1436.804688 1148.503906 1437.945312 1148.449219 1439.082031 C 1148.394531 1440.222656 1148.308594 1441.359375 1148.199219 1442.496094 C 1148.085938 1443.628906 1147.945312 1444.761719 1147.777344 1445.890625 C 1147.609375 1447.019531 1147.417969 1448.140625 1147.195312 1449.261719 C 1146.972656 1450.378906 1146.722656 1451.492188 1146.445312 1452.597656 C 1146.167969 1453.707031 1145.863281 1454.804688 1145.53125 1455.894531 C 1145.199219 1456.988281 1144.84375 1458.070312 1144.457031 1459.144531 C 1144.074219 1460.21875 1143.664062 1461.28125 1143.226562 1462.335938 C 1142.789062 1463.390625 1142.328125 1464.433594 1141.839844 1465.464844 C 1141.355469 1466.496094 1140.839844 1467.511719 1140.304688 1468.519531 C 1139.765625 1469.523438 1139.203125 1470.515625 1138.617188 1471.496094 C 1138.03125 1472.472656 1137.421875 1473.4375 1136.785156 1474.386719 C 1136.152344 1475.335938 1135.496094 1476.265625 1134.816406 1477.183594 C 1134.136719 1478.097656 1133.4375 1478.996094 1132.710938 1479.878906 C 1131.988281 1480.761719 1131.242188 1481.625 1130.476562 1482.46875 C 1129.710938 1483.316406 1128.925781 1484.140625 1128.117188 1484.949219 C 1127.3125 1485.753906 1126.488281 1486.539062 1125.640625 1487.304688 C 1124.796875 1488.074219 1123.933594 1488.816406 1123.050781 1489.542969 C 1122.167969 1490.265625 1121.269531 1490.964844 1120.355469 1491.644531 C 1119.4375 1492.324219 1118.503906 1492.980469 1117.558594 1493.617188 C 1116.609375 1494.25 1115.644531 1494.859375 1114.667969 1495.445312 C 1113.6875 1496.03125 1112.695312 1496.59375 1111.691406 1497.132812 C 1110.683594 1497.667969 1109.664062 1498.183594 1108.632812 1498.667969 C 1107.601562 1499.15625 1106.5625 1499.621094 1105.507812 1500.054688 C 1104.453125 1500.492188 1103.390625 1500.902344 1102.316406 1501.289062 C 1101.242188 1501.671875 1100.160156 1502.03125 1099.066406 1502.359375 C 1097.976562 1502.691406 1096.875 1502.996094 1095.769531 1503.273438 C 1094.664062 1503.550781 1093.550781 1503.800781 1092.433594 1504.023438 C 1091.3125 1504.246094 1090.191406 1504.441406 1089.0625 1504.605469 C 1087.933594 1504.773438 1086.800781 1504.914062 1085.667969 1505.027344 C 1084.53125 1505.136719 1083.394531 1505.222656 1082.253906 1505.277344 C 1081.117188 1505.332031 1079.976562 1505.363281 1078.835938 1505.363281 C 1077.695312 1505.363281 1076.554688 1505.332031 1075.414062 1505.277344 C 1074.277344 1505.222656 1073.136719 1505.136719 1072.003906 1505.027344 C 1070.867188 1504.914062 1069.738281 1504.773438 1068.609375 1504.605469 C 1067.480469 1504.441406 1066.355469 1504.246094 1065.238281 1504.023438 C 1064.117188 1503.800781 1063.007812 1503.550781 1061.898438 1503.273438 C 1060.792969 1502.996094 1059.695312 1502.691406 1058.601562 1502.359375 C 1057.511719 1502.03125 1056.429688 1501.671875 1055.355469 1501.289062 C 1054.28125 1500.902344 1053.214844 1500.492188 1052.164062 1500.054688 C 1051.109375 1499.621094 1050.066406 1499.15625 1049.035156 1498.667969 C 1048.003906 1498.183594 1046.984375 1497.667969 1045.980469 1497.132812 C 1044.972656 1496.59375 1043.980469 1496.03125 1043.003906 1495.445312 C 1042.023438 1494.859375 1041.0625 1494.25 1040.113281 1493.617188 C 1039.164062 1492.980469 1038.230469 1492.324219 1037.316406 1491.644531 C 1036.398438 1490.964844 1035.5 1490.265625 1034.617188 1489.542969 C 1033.738281 1488.816406 1032.875 1488.074219 1032.027344 1487.304688 C 1031.183594 1486.539062 1030.359375 1485.753906 1029.550781 1484.949219 C 1028.746094 1484.140625 1027.957031 1483.316406 1027.191406 1482.46875 C 1026.425781 1481.625 1025.679688 1480.761719 1024.957031 1479.878906 C 1024.234375 1478.996094 1023.53125 1478.097656 1022.851562 1477.183594 C 1022.171875 1476.265625 1021.515625 1475.335938 1020.882812 1474.386719 C 1020.25 1473.4375 1019.640625 1472.472656 1019.054688 1471.496094 C 1018.464844 1470.515625 1017.90625 1469.523438 1017.367188 1468.519531 C 1016.828125 1467.511719 1016.316406 1466.496094 1015.828125 1465.464844 C 1015.339844 1464.433594 1014.878906 1463.390625 1014.441406 1462.335938 C 1014.003906 1461.28125 1013.59375 1460.21875 1013.210938 1459.144531 C 1012.828125 1458.070312 1012.46875 1456.988281 1012.136719 1455.894531 C 1011.808594 1454.804688 1011.503906 1453.707031 1011.226562 1452.597656 C 1010.949219 1451.492188 1010.699219 1450.378906 1010.476562 1449.261719 C 1010.253906 1448.140625 1010.058594 1447.019531 1009.890625 1445.890625 C 1009.722656 1444.761719 1009.585938 1443.628906 1009.472656 1442.496094 C 1009.359375 1441.359375 1009.277344 1440.222656 1009.222656 1439.082031 C 1009.164062 1437.945312 1009.136719 1436.804688 1009.136719 1435.664062 C 1009.136719 1434.523438 1009.164062 1433.382812 1009.222656 1432.242188 C 1009.277344 1431.105469 1009.359375 1429.96875 1009.472656 1428.832031 C 1009.585938 1427.695312 1009.722656 1426.566406 1009.890625 1425.4375 C 1010.058594 1424.308594 1010.253906 1423.183594 1010.476562 1422.066406 C 1010.699219 1420.949219 1010.949219 1419.835938 1011.226562 1418.726562 C 1011.503906 1417.621094 1011.808594 1416.523438 1012.136719 1415.429688 C 1012.46875 1414.339844 1012.828125 1413.257812 1013.210938 1412.183594 C 1013.59375 1411.109375 1014.003906 1410.046875 1014.441406 1408.992188 C 1014.878906 1407.9375 1015.339844 1406.894531 1015.828125 1405.863281 C 1016.316406 1404.832031 1016.828125 1403.8125 1017.367188 1402.808594 C 1017.90625 1401.800781 1018.464844 1400.808594 1019.054688 1399.832031 C 1019.640625 1398.851562 1020.25 1397.890625 1020.882812 1396.941406 C 1021.515625 1395.992188 1022.171875 1395.0625 1022.851562 1394.144531 C 1023.53125 1393.226562 1024.234375 1392.328125 1024.957031 1391.449219 C 1025.679688 1390.566406 1026.425781 1389.703125 1027.191406 1388.855469 C 1027.957031 1388.011719 1028.746094 1387.1875 1029.550781 1386.378906 C 1030.359375 1385.574219 1031.183594 1384.785156 1032.027344 1384.019531 C 1032.875 1383.253906 1033.738281 1382.511719 1034.617188 1381.785156 C 1035.5 1381.0625 1036.398438 1380.359375 1037.316406 1379.679688 C 1038.230469 1379 1039.164062 1378.34375 1040.113281 1377.710938 C 1041.0625 1377.078125 1042.023438 1376.46875 1043.003906 1375.882812 C 1043.980469 1375.296875 1044.972656 1374.734375 1045.980469 1374.195312 C 1046.984375 1373.65625 1048.003906 1373.144531 1049.035156 1372.65625 C 1050.066406 1372.167969 1051.109375 1371.707031 1052.164062 1371.269531 C 1053.214844 1370.835938 1054.28125 1370.425781 1055.355469 1370.039062 C 1056.429688 1369.65625 1057.511719 1369.296875 1058.601562 1368.964844 C 1059.695312 1368.636719 1060.792969 1368.332031 1061.898438 1368.054688 C 1063.007812 1367.777344 1064.117188 1367.527344 1065.238281 1367.304688 C 1066.355469 1367.082031 1067.480469 1366.886719 1068.609375 1366.71875 C 1069.738281 1366.550781 1070.867188 1366.414062 1072.003906 1366.300781 C 1073.136719 1366.1875 1074.277344 1366.105469 1075.414062 1366.050781 C 1076.554688 1365.992188 1077.695312 1365.964844 1078.835938 1365.964844 C 1079.976562 1365.964844 1081.117188 1365.992188 1082.253906 1366.050781 C 1083.394531 1366.105469 1084.53125 1366.1875 1085.667969 1366.300781 C 1086.800781 1366.414062 1087.933594 1366.550781 1089.0625 1366.71875 C 1090.191406 1366.886719 1091.3125 1367.082031 1092.433594 1367.304688 C 1093.550781 1367.527344 1094.664062 1367.777344 1095.769531 1368.054688 C 1096.875 1368.332031 1097.976562 1368.636719 1099.066406 1368.964844 C 1100.160156 1369.296875 1101.242188 1369.65625 1102.316406 1370.039062 C 1103.390625 1370.425781 1104.453125 1370.835938 1105.507812 1371.269531 C 1106.5625 1371.707031 1107.601562 1372.167969 1108.632812 1372.65625 C 1109.664062 1373.144531 1110.683594 1373.65625 1111.691406 1374.195312 C 1112.695312 1374.734375 1113.6875 1375.296875 1114.667969 1375.882812 C 1115.644531 1376.46875 1116.609375 1377.078125 1117.558594 1377.710938 C 1118.503906 1378.34375 1119.4375 1379.003906 1120.355469 1379.683594 C 1121.269531 1380.359375 1122.167969 1381.0625 1123.050781 1381.785156 C 1123.933594 1382.511719 1124.796875 1383.253906 1125.640625 1384.019531 C 1126.488281 1384.785156 1127.3125 1385.574219 1128.117188 1386.378906 C 1128.925781 1387.1875 1129.710938 1388.011719 1130.476562 1388.859375 C 1131.242188 1389.703125 1131.988281 1390.566406 1132.710938 1391.449219 C 1133.4375 1392.328125 1134.136719 1393.226562 1134.816406 1394.144531 C 1135.496094 1395.0625 1136.152344 1395.992188 1136.785156 1396.941406 C 1137.421875 1397.890625 1138.03125 1398.851562 1138.617188 1399.832031 C 1139.203125 1400.808594 1139.765625 1401.800781 1140.304688 1402.808594 C 1140.839844 1403.8125 1141.355469 1404.832031 1141.839844 1405.863281 C 1142.328125 1406.894531 1142.789062 1407.9375 1143.226562 1408.992188 C 1143.664062 1410.046875 1144.074219 1411.109375 1144.457031 1412.183594 C 1144.84375 1413.257812 1145.199219 1414.339844 1145.53125 1415.429688 C 1145.863281 1416.523438 1146.167969 1417.621094 1146.445312 1418.730469 C 1146.722656 1419.835938 1146.972656 1420.949219 1147.195312 1422.066406 C 1147.417969 1423.183594 1147.609375 1424.308594 1147.777344 1425.4375 C 1147.945312 1426.566406 1148.085938 1427.695312 1148.199219 1428.832031 C 1148.308594 1429.96875 1148.394531 1431.105469 1148.449219 1432.242188 C 1148.503906 1433.382812 1148.53125 1434.523438 1148.53125 1435.664062 Z M 1148.53125 1435.664062 " fill-opacity="1" fill-rule="nonzero"/><path fill="#01b5ff" d="M 674.386719 1435.667969 C 674.386719 1436.808594 674.359375 1437.949219 674.304688 1439.085938 C 674.246094 1440.226562 674.164062 1441.363281 674.050781 1442.5 C 673.9375 1443.632812 673.800781 1444.765625 673.632812 1445.894531 C 673.464844 1447.023438 673.269531 1448.144531 673.046875 1449.265625 C 672.824219 1450.382812 672.574219 1451.496094 672.296875 1452.601562 C 672.019531 1453.707031 671.714844 1454.808594 671.386719 1455.898438 C 671.054688 1456.992188 670.695312 1458.074219 670.3125 1459.148438 C 669.929688 1460.222656 669.519531 1461.285156 669.082031 1462.339844 C 668.644531 1463.394531 668.183594 1464.433594 667.695312 1465.464844 C 667.207031 1466.496094 666.695312 1467.515625 666.15625 1468.523438 C 665.617188 1469.527344 665.058594 1470.519531 664.46875 1471.5 C 663.882812 1472.476562 663.273438 1473.441406 662.640625 1474.390625 C 662.007812 1475.335938 661.351562 1476.269531 660.671875 1477.1875 C 659.992188 1478.101562 659.289062 1479 658.566406 1479.882812 C 657.84375 1480.765625 657.097656 1481.628906 656.332031 1482.472656 C 655.566406 1483.320312 654.777344 1484.144531 653.972656 1484.949219 C 653.164062 1485.757812 652.339844 1486.542969 651.496094 1487.308594 C 650.648438 1488.074219 649.785156 1488.820312 648.90625 1489.542969 C 648.023438 1490.269531 647.125 1490.96875 646.207031 1491.648438 C 645.292969 1492.328125 644.359375 1492.984375 643.410156 1493.617188 C 642.460938 1494.253906 641.5 1494.863281 640.519531 1495.449219 C 639.542969 1496.035156 638.550781 1496.597656 637.542969 1497.136719 C 636.539062 1497.671875 635.519531 1498.183594 634.488281 1498.671875 C 633.457031 1499.160156 632.414062 1499.621094 631.359375 1500.058594 C 630.308594 1500.496094 629.242188 1500.90625 628.167969 1501.289062 C 627.09375 1501.675781 626.011719 1502.03125 624.921875 1502.363281 C 623.828125 1502.695312 622.730469 1503 621.625 1503.277344 C 620.515625 1503.554688 619.40625 1503.804688 618.285156 1504.027344 C 617.167969 1504.25 616.042969 1504.445312 614.914062 1504.609375 C 613.789062 1504.777344 612.65625 1504.917969 611.519531 1505.03125 C 610.386719 1505.140625 609.246094 1505.226562 608.109375 1505.28125 C 606.96875 1505.335938 605.828125 1505.363281 604.6875 1505.363281 C 603.546875 1505.363281 602.40625 1505.335938 601.269531 1505.28125 C 600.128906 1505.226562 598.992188 1505.140625 597.855469 1505.03125 C 596.722656 1504.917969 595.589844 1504.777344 594.460938 1504.609375 C 593.332031 1504.441406 592.210938 1504.25 591.089844 1504.027344 C 589.972656 1503.804688 588.859375 1503.554688 587.753906 1503.277344 C 586.648438 1503 585.546875 1502.695312 584.457031 1502.363281 C 583.363281 1502.03125 582.28125 1501.675781 581.207031 1501.289062 C 580.132812 1500.90625 579.070312 1500.496094 578.015625 1500.058594 C 576.960938 1499.621094 575.917969 1499.160156 574.890625 1498.671875 C 573.859375 1498.183594 572.839844 1497.671875 571.832031 1497.136719 C 570.828125 1496.597656 569.835938 1496.035156 568.855469 1495.449219 C 567.878906 1494.863281 566.914062 1494.253906 565.964844 1493.617188 C 565.019531 1492.984375 564.085938 1492.328125 563.167969 1491.648438 C 562.253906 1490.96875 561.355469 1490.269531 560.472656 1489.542969 C 559.589844 1488.820312 558.726562 1488.074219 557.882812 1487.308594 C 557.035156 1486.542969 556.210938 1485.757812 555.40625 1484.949219 C 554.597656 1484.144531 553.8125 1483.320312 553.046875 1482.472656 C 552.28125 1481.628906 551.535156 1480.765625 550.8125 1479.882812 C 550.085938 1479 549.386719 1478.101562 548.707031 1477.1875 C 548.027344 1476.269531 547.371094 1475.335938 546.738281 1474.390625 C 546.101562 1473.441406 545.492188 1472.476562 544.90625 1471.5 C 544.320312 1470.519531 543.757812 1469.527344 543.21875 1468.523438 C 542.683594 1467.515625 542.171875 1466.496094 541.683594 1465.464844 C 541.195312 1464.433594 540.730469 1463.394531 540.296875 1462.339844 C 539.859375 1461.285156 539.449219 1460.222656 539.066406 1459.148438 C 538.679688 1458.074219 538.324219 1456.992188 537.992188 1455.898438 C 537.660156 1454.808594 537.355469 1453.707031 537.078125 1452.601562 C 536.800781 1451.496094 536.550781 1450.382812 536.328125 1449.265625 C 536.105469 1448.144531 535.914062 1447.023438 535.746094 1445.894531 C 535.578125 1444.765625 535.4375 1443.632812 535.328125 1442.5 C 535.214844 1441.363281 535.128906 1440.226562 535.074219 1439.085938 C 535.019531 1437.949219 534.992188 1436.808594 534.992188 1435.667969 C 534.992188 1434.527344 535.019531 1433.386719 535.074219 1432.246094 C 535.128906 1431.109375 535.214844 1429.96875 535.328125 1428.835938 C 535.4375 1427.699219 535.578125 1426.570312 535.746094 1425.441406 C 535.914062 1424.3125 536.105469 1423.1875 536.328125 1422.070312 C 536.550781 1420.949219 536.800781 1419.839844 537.078125 1418.730469 C 537.355469 1417.625 537.660156 1416.527344 537.992188 1415.433594 C 538.324219 1414.34375 538.679688 1413.261719 539.066406 1412.1875 C 539.449219 1411.113281 539.859375 1410.046875 540.296875 1408.996094 C 540.730469 1407.941406 541.195312 1406.898438 541.683594 1405.867188 C 542.171875 1404.835938 542.683594 1403.816406 543.21875 1402.8125 C 543.757812 1401.804688 544.320312 1400.8125 544.90625 1399.835938 C 545.492188 1398.855469 546.101562 1397.894531 546.738281 1396.945312 C 547.371094 1395.996094 548.027344 1395.0625 548.707031 1394.148438 C 549.386719 1393.230469 550.085938 1392.332031 550.8125 1391.449219 C 551.535156 1390.570312 552.28125 1389.707031 553.046875 1388.859375 C 553.8125 1388.015625 554.597656 1387.191406 555.40625 1386.382812 C 556.210938 1385.578125 557.035156 1384.789062 557.882812 1384.023438 C 558.726562 1383.257812 559.589844 1382.511719 560.472656 1381.789062 C 561.355469 1381.066406 562.253906 1380.363281 563.167969 1379.683594 C 564.085938 1379.003906 565.019531 1378.347656 565.964844 1377.714844 C 566.914062 1377.082031 567.878906 1376.472656 568.855469 1375.886719 C 569.835938 1375.296875 570.828125 1374.738281 571.832031 1374.199219 C 572.839844 1373.660156 573.859375 1373.148438 574.890625 1372.660156 C 575.917969 1372.171875 576.960938 1371.710938 578.015625 1371.273438 C 579.070312 1370.835938 580.132812 1370.425781 581.207031 1370.042969 C 582.28125 1369.660156 583.363281 1369.300781 584.457031 1368.96875 C 585.546875 1368.640625 586.648438 1368.335938 587.753906 1368.058594 C 588.859375 1367.78125 589.972656 1367.53125 591.089844 1367.308594 C 592.210938 1367.085938 593.332031 1366.890625 594.460938 1366.722656 C 595.589844 1366.554688 596.722656 1366.417969 597.855469 1366.304688 C 598.992188 1366.191406 600.128906 1366.109375 601.269531 1366.054688 C 602.40625 1365.996094 603.546875 1365.96875 604.6875 1365.96875 C 605.828125 1365.96875 606.96875 1365.996094 608.109375 1366.054688 C 609.246094 1366.109375 610.386719 1366.191406 611.519531 1366.304688 C 612.65625 1366.417969 613.789062 1366.554688 614.914062 1366.722656 C 616.042969 1366.890625 617.167969 1367.085938 618.285156 1367.308594 C 619.40625 1367.53125 620.515625 1367.78125 621.625 1368.058594 C 622.730469 1368.335938 623.828125 1368.640625 624.921875 1368.96875 C 626.011719 1369.300781 627.09375 1369.660156 628.167969 1370.042969 C 629.242188 1370.425781 630.308594 1370.835938 631.359375 1371.273438 C 632.414062 1371.710938 633.457031 1372.171875 634.488281 1372.660156 C 635.519531 1373.148438 636.539062 1373.660156 637.542969 1374.199219 C 638.550781 1374.738281 639.542969 1375.296875 640.519531 1375.886719 C 641.5 1376.472656 642.460938 1377.082031 643.410156 1377.714844 C 644.359375 1378.347656 645.292969 1379.003906 646.207031 1379.683594 C 647.125 1380.363281 648.023438 1381.066406 648.90625 1381.789062 C 649.785156 1382.511719 650.648438 1383.257812 651.496094 1384.023438 C 652.339844 1384.789062 653.164062 1385.578125 653.972656 1386.382812 C 654.777344 1387.191406 655.566406 1388.015625 656.332031 1388.859375 C 657.097656 1389.707031 657.84375 1390.570312 658.566406 1391.449219 C 659.289062 1392.332031 659.992188 1393.230469 660.671875 1394.148438 C 661.351562 1395.0625 662.007812 1395.996094 662.640625 1396.945312 C 663.273438 1397.894531 663.882812 1398.855469 664.46875 1399.835938 C 665.058594 1400.8125 665.617188 1401.804688 666.15625 1402.8125 C 666.695312 1403.816406 667.207031 1404.835938 667.695312 1405.867188 C 668.183594 1406.898438 668.644531 1407.941406 669.082031 1408.996094 C 669.519531 1410.046875 669.929688 1411.113281 670.3125 1412.1875 C 670.695312 1413.261719 671.054688 1414.34375 671.386719 1415.433594 C 671.714844 1416.527344 672.019531 1417.625 672.296875 1418.730469 C 672.574219 1419.839844 672.824219 1420.949219 673.046875 1422.070312 C 673.269531 1423.1875 673.464844 1424.3125 673.632812 1425.441406 C 673.800781 1426.570312 673.9375 1427.699219 674.050781 1428.835938 C 674.164062 1429.96875 674.246094 1431.109375 674.304688 1432.246094 C 674.359375 1433.386719 674.386719 1434.527344 674.386719 1435.667969 Z M 674.386719 1435.667969 " fill-opacity="1" fill-rule="nonzero"/><path fill="#01b5ff" d="M 1099.34375 766.792969 L 584.183594 766.792969 C 559.027344 766.792969 540.050781 789.625 544.65625 814.355469 L 562.921875 912.46875 C 575.871094 982.011719 636.558594 1032.445312 707.296875 1032.445312 L 976.222656 1032.445312 C 1046.960938 1032.445312 1107.652344 982.011719 1120.597656 912.46875 L 1138.863281 814.355469 C 1143.46875 789.625 1124.496094 766.792969 1099.34375 766.792969 Z M 1099.34375 766.792969 " fill-opacity="1" fill-rule="nonzero"/><path fill="#011168" d="M 1516.878906 1165.933594 C 1485.558594 1061.347656 1417.832031 970.457031 1326.179688 910.003906 L 1316.511719 903.628906 L 1316.511719 488.054688 C 1316.511719 472.960938 1324.894531 459.40625 1338.386719 452.679688 C 1351.863281 445.96875 1367.703125 447.429688 1379.734375 456.503906 L 1411.59375 480.527344 C 1450.625 509.90625 1476.824219 552.585938 1485.355469 600.699219 L 1485.503906 601.640625 L 1558.820312 1156.945312 Z M 1359.542969 880.621094 C 1414.808594 918.910156 1461.675781 967.5 1497.753906 1023.171875 L 1442.910156 607.761719 C 1436.199219 570.589844 1415.898438 537.625 1385.703125 514.894531 L 1359.542969 495.167969 Z M 1359.542969 880.621094 " fill-opacity="1" fill-rule="nonzero"/><path fill="#011168" d="M 166.644531 1165.933594 L 124.703125 1156.945312 L 198.082031 601.171875 L 198.167969 600.703125 C 206.699219 552.589844 232.898438 509.90625 271.941406 480.519531 L 303.789062 456.503906 C 315.816406 447.433594 331.660156 445.96875 345.136719 452.683594 C 358.628906 459.40625 367.011719 472.960938 367.011719 488.058594 L 367.011719 903.628906 L 357.34375 910.007812 C 265.691406 970.457031 197.964844 1061.347656 166.644531 1165.933594 Z M 240.613281 607.761719 L 185.769531 1023.171875 C 221.847656 967.5 268.714844 918.910156 323.980469 880.621094 L 323.980469 495.167969 L 297.835938 514.882812 C 267.628906 537.625 247.324219 570.589844 240.613281 607.761719 Z M 240.613281 607.761719 " fill-opacity="1" fill-rule="nonzero"/><g clip-path="url(#f06baa8c76)"><path fill="#011168" d="M 1574.886719 1584.546875 L 1517.453125 1584.546875 L 1517.453125 1559.464844 L 1518.296875 1556.539062 C 1530.386719 1514.660156 1536.511719 1471.058594 1536.511719 1426.953125 L 1536.511719 1300.28125 C 1536.511719 1257.585938 1530.765625 1215.339844 1519.4375 1174.710938 L 1511.824219 1147.417969 L 1574.886719 1147.417969 C 1634.710938 1147.417969 1683.382812 1196.085938 1683.382812 1255.910156 L 1683.382812 1476.003906 C 1683.382812 1535.855469 1634.710938 1584.546875 1574.886719 1584.546875 Z M 1566.621094 1541.515625 L 1574.886719 1541.515625 C 1610.984375 1541.515625 1640.351562 1512.125 1640.351562 1476.003906 L 1640.351562 1255.910156 C 1640.351562 1219.8125 1610.988281 1190.445312 1574.886719 1190.445312 L 1567.683594 1190.445312 C 1575.558594 1226.332031 1579.542969 1263.160156 1579.542969 1300.28125 L 1579.542969 1426.953125 C 1579.546875 1465.710938 1575.203125 1504.132812 1566.621094 1541.515625 Z M 1566.621094 1541.515625 " fill-opacity="1" fill-rule="nonzero"/></g><g clip-path="url(#478a2eb00e)"><path fill="#011168" d="M 166.070312 1584.546875 L 108.636719 1584.546875 C 48.8125 1584.546875 0.140625 1535.855469 0.140625 1476.007812 L 0.140625 1255.910156 C 0.140625 1196.085938 48.8125 1147.417969 108.636719 1147.417969 L 171.695312 1147.417969 L 164.085938 1174.710938 C 152.753906 1215.339844 147.007812 1257.589844 147.007812 1300.28125 L 147.007812 1426.949219 C 147.007812 1471.058594 153.136719 1514.65625 165.222656 1556.539062 L 166.066406 1559.464844 L 166.066406 1584.546875 Z M 108.636719 1190.445312 C 72.539062 1190.445312 43.171875 1219.816406 43.171875 1255.910156 L 43.171875 1476.003906 C 43.171875 1512.125 72.539062 1541.515625 108.636719 1541.515625 L 116.902344 1541.515625 C 108.320312 1504.132812 103.976562 1465.710938 103.976562 1426.949219 L 103.976562 1300.28125 C 103.976562 1263.160156 107.964844 1226.332031 115.839844 1190.445312 Z M 108.636719 1190.445312 " fill-opacity="1" fill-rule="nonzero"/></g><g clip-path="url(#14f91ba29c)"><path fill="#011168" d="M 1069.253906 1937.199219 L 614.269531 1937.199219 C 332.910156 1937.199219 104 1708.292969 104 1426.933594 L 104 1300.304688 C 104 1176.640625 148.808594 1057.351562 230.164062 964.40625 C 310.742188 872.351562 421.5 812.242188 542.03125 795.152344 L 562.429688 792.257812 L 584.078125 908.527344 C 595.121094 967.863281 646.941406 1010.929688 707.300781 1010.929688 L 976.222656 1010.929688 C 1036.582031 1010.929688 1088.402344 967.863281 1099.445312 908.527344 L 1121.09375 792.257812 L 1141.492188 795.152344 C 1262.023438 812.242188 1372.78125 872.351562 1453.359375 964.40625 C 1534.714844 1057.351562 1579.523438 1176.640625 1579.523438 1300.304688 L 1579.523438 1426.933594 C 1579.523438 1708.292969 1350.613281 1937.199219 1069.253906 1937.199219 Z M 527.753906 841.101562 C 309.304688 882.074219 147.03125 1075.929688 147.03125 1300.304688 L 147.03125 1426.933594 C 147.03125 1684.566406 356.632812 1894.167969 614.269531 1894.167969 L 1069.253906 1894.167969 C 1326.890625 1894.167969 1536.492188 1684.566406 1536.492188 1426.933594 L 1536.492188 1300.304688 C 1536.492188 1075.929688 1374.21875 882.074219 1155.769531 841.101562 L 1141.75 916.40625 C 1126.914062 996.109375 1057.300781 1053.957031 976.222656 1053.957031 L 707.300781 1053.957031 C 626.222656 1053.957031 556.609375 996.109375 541.773438 916.402344 Z M 527.753906 841.101562 " fill-opacity="1" fill-rule="nonzero"/></g><path fill="#011168" d="M 1134.691406 1738.59375 L 548.832031 1738.59375 C 440.703125 1738.59375 352.734375 1650.625 352.734375 1542.496094 L 352.734375 1434.640625 C 352.734375 1355.765625 382.816406 1281.003906 437.4375 1224.128906 C 521.070312 1137.039062 657.445312 1122.496094 761.714844 1189.542969 C 810.335938 1220.8125 873.183594 1220.808594 921.8125 1189.542969 C 1026.078125 1122.5 1162.449219 1137.042969 1246.089844 1224.128906 C 1300.707031 1281.003906 1330.789062 1355.765625 1330.789062 1434.640625 L 1330.789062 1542.496094 C 1330.789062 1650.625 1242.820312 1738.59375 1134.691406 1738.59375 Z M 619.347656 1190.578125 C 563.414062 1190.578125 508.582031 1212.171875 468.472656 1253.933594 C 421.585938 1302.757812 395.769531 1366.933594 395.769531 1434.640625 L 395.769531 1542.496094 C 395.769531 1626.894531 464.429688 1695.5625 548.832031 1695.5625 L 1134.691406 1695.5625 C 1219.09375 1695.5625 1287.753906 1626.894531 1287.753906 1542.496094 L 1287.753906 1434.640625 C 1287.753906 1366.933594 1261.9375 1302.753906 1215.050781 1253.933594 C 1145.625 1181.648438 1032.089844 1169.789062 945.085938 1225.738281 C 882.316406 1266.101562 801.203125 1266.101562 738.4375 1225.738281 C 701.699219 1202.113281 660.230469 1190.578125 619.347656 1190.578125 Z M 619.347656 1190.578125 " fill-opacity="1" fill-rule="nonzero"/><path fill="#011168" d="M 976.222656 1053.957031 L 707.300781 1053.957031 C 626.226562 1053.957031 556.613281 996.109375 541.769531 916.402344 L 523.503906 818.292969 C 520.136719 800.199219 524.949219 781.703125 536.710938 767.550781 C 548.476562 753.394531 565.777344 745.277344 584.183594 745.277344 L 1099.339844 745.277344 C 1117.746094 745.277344 1135.046875 753.394531 1146.808594 767.550781 C 1158.570312 781.703125 1163.382812 800.199219 1160.015625 818.292969 L 1141.75 916.40625 C 1126.910156 996.109375 1057.296875 1053.957031 976.222656 1053.957031 Z M 584.183594 788.304688 C 576.550781 788.304688 571.902344 792.53125 569.808594 795.050781 C 567.714844 797.570312 564.410156 802.914062 565.8125 810.414062 L 584.074219 908.527344 C 595.121094 967.863281 646.945312 1010.929688 707.300781 1010.929688 L 976.222656 1010.929688 C 1036.578125 1010.929688 1088.402344 967.863281 1099.449219 908.527344 L 1117.710938 810.417969 C 1119.113281 802.914062 1115.808594 797.570312 1113.714844 795.054688 C 1111.621094 792.53125 1106.96875 788.308594 1099.339844 788.308594 L 584.183594 788.308594 Z M 584.183594 788.304688 " fill-opacity="1" fill-rule="nonzero"/><path fill="#01b5ff" d="M 842.152344 1652.882812 C 841.8125 1652.882812 841.476562 1652.882812 841.140625 1652.882812 C 773.597656 1652.601562 714.644531 1624.890625 683.4375 1578.761719 C 676.78125 1568.917969 679.363281 1555.542969 689.203125 1548.886719 C 699.050781 1542.226562 712.421875 1544.808594 719.078125 1554.648438 C 741.964844 1588.480469 788.804688 1609.632812 841.316406 1609.851562 C 841.59375 1609.851562 841.882812 1609.851562 842.160156 1609.851562 C 894.949219 1609.851562 940.652344 1589.195312 964.546875 1554.503906 C 971.289062 1544.714844 984.6875 1542.25 994.472656 1548.984375 C 1004.253906 1555.726562 1006.726562 1569.121094 999.988281 1578.910156 C 968.054688 1625.273438 909.101562 1652.882812 842.152344 1652.882812 Z M 842.152344 1652.882812 " fill-opacity="1" fill-rule="nonzero"/></svg>