<svg xmlns="http://www.w3.org/2000/svg" xmlns:xlink="http://www.w3.org/1999/xlink" width="1200" zoomAndPan="magnify" viewBox="0 0 900 359.999987" height="480" preserveAspectRatio="xMidYMid meet" version="1.0"><defs><g/></defs><g fill="#ffffff" fill-opacity="1"><g transform="translate(17.404033, 220.649747)"><g><path d="M 108 -61.90625 L 108 -37.921875 C 105.144531 -24.785156 98.890625 -14.84375 89.234375 -8.09375 C 79.585938 -1.351562 68.828125 2.015625 56.953125 2.015625 C 42.035156 2.015625 29.328125 -3.566406 18.828125 -14.734375 C 8.328125 -25.898438 3.078125 -39.390625 3.078125 -55.203125 C 3.078125 -71.285156 8.210938 -84.863281 18.484375 -95.9375 C 28.765625 -107.019531 41.585938 -112.5625 56.953125 -112.5625 C 74.910156 -112.5625 89.113281 -106.265625 99.5625 -93.671875 L 83.078125 -75.578125 C 77.179688 -85.046875 68.960938 -89.78125 58.421875 -89.78125 C 50.648438 -89.78125 44.015625 -86.40625 38.515625 -79.65625 C 33.023438 -72.914062 30.28125 -64.765625 30.28125 -55.203125 C 30.28125 -45.828125 33.023438 -37.8125 38.515625 -31.15625 C 44.015625 -24.5 50.648438 -21.171875 58.421875 -21.171875 C 64.859375 -21.171875 70.460938 -23.113281 75.234375 -27 C 80.015625 -30.882812 82.40625 -36.046875 82.40625 -42.484375 L 56.953125 -42.484375 L 56.953125 -61.90625 Z M 108 -61.90625 "/></g></g></g><g fill="#ffffff" fill-opacity="1"><g transform="translate(128.483606, 220.649747)"><g><path d="M 93 -110.546875 L 93 -39.265625 C 93 -25.679688 89.332031 -15.40625 82 -8.4375 C 74.675781 -1.46875 63.957031 2.015625 49.84375 2.015625 C 35.726562 2.015625 25.007812 -1.46875 17.6875 -8.4375 C 10.363281 -15.40625 6.703125 -25.679688 6.703125 -39.265625 L 6.703125 -110.546875 L 31.890625 -110.546875 L 31.890625 -46.625 C 31.890625 -37.695312 33.296875 -31.488281 36.109375 -28 C 38.921875 -24.519531 43.5 -22.78125 49.84375 -22.78125 C 56.1875 -22.78125 60.765625 -24.519531 63.578125 -28 C 66.390625 -31.488281 67.796875 -37.695312 67.796875 -46.625 L 67.796875 -110.546875 Z M 93 -110.546875 "/></g></g></g><g fill="#ffffff" fill-opacity="1"><g transform="translate(228.173838, 220.649747)"><g><path d="M 33.234375 -110.546875 L 33.234375 0 L 8.046875 0 L 8.046875 -110.546875 Z M 33.234375 -110.546875 "/></g></g></g><g fill="#ffffff" fill-opacity="1"><g transform="translate(269.44345, 220.649747)"><g><path d="M 99.421875 0 L 94.203125 -65.53125 L 93.53125 -65.53125 L 70.890625 -0.671875 L 55.875 -0.671875 L 33.234375 -65.53125 L 32.5625 -65.53125 L 27.34375 0 L 2.140625 0 L 12.0625 -110.546875 L 38.859375 -110.546875 L 63.375 -46.765625 L 87.90625 -110.546875 L 114.703125 -110.546875 L 124.625 0 Z M 99.421875 0 "/></g></g></g><g fill="#ffffff" fill-opacity="1"><g transform="translate(396.2001, 220.649747)"><g><path d="M 64.1875 -110.546875 L 108.8125 0 L 81.734375 0 L 73.5625 -22.109375 L 31.484375 -22.109375 L 23.3125 0 L -3.75 0 L 40.875 -110.546875 Z M 64.984375 -44.21875 L 52.65625 -76.375 L 52.390625 -76.375 L 40.0625 -44.21875 Z M 64.984375 -44.21875 "/></g></g></g><g fill="#ffffff" fill-opacity="1"><g transform="translate(501.250033, 220.649747)"><g><path d="M 8.046875 -110.546875 L 47.5625 -110.546875 C 58.195312 -110.546875 66.863281 -107.707031 73.5625 -102.03125 C 80.257812 -96.363281 83.609375 -88.257812 83.609375 -77.71875 C 83.609375 -69.59375 81.578125 -62.78125 77.515625 -57.28125 C 73.453125 -51.789062 67.9375 -47.925781 60.96875 -45.6875 L 99.03125 0 L 67 0 L 33.234375 -43.6875 L 33.234375 0 L 8.046875 0 Z M 33.234375 -61.5 L 36.1875 -61.5 C 38.5 -61.5 40.457031 -61.546875 42.0625 -61.640625 C 43.675781 -61.734375 45.507812 -62.046875 47.5625 -62.578125 C 49.625 -63.109375 51.28125 -63.863281 52.53125 -64.84375 C 53.78125 -65.832031 54.847656 -67.265625 55.734375 -69.140625 C 56.628906 -71.015625 57.078125 -73.289062 57.078125 -75.96875 C 57.078125 -78.65625 56.628906 -80.9375 55.734375 -82.8125 C 54.847656 -84.6875 53.78125 -86.113281 52.53125 -87.09375 C 51.28125 -88.082031 49.625 -88.84375 47.5625 -89.375 C 45.507812 -89.914062 43.675781 -90.226562 42.0625 -90.3125 C 40.457031 -90.40625 38.5 -90.453125 36.1875 -90.453125 L 33.234375 -90.453125 Z M 33.234375 -61.5 "/></g></g></g><g fill="#13dc86" fill-opacity="1"><g transform="translate(593.736053, 220.649747)"><g><path d="M 8.046875 -110.546875 L 42.34375 -110.546875 C 52.707031 -110.546875 60.96875 -108.332031 67.125 -103.90625 C 73.289062 -99.488281 76.375 -92.320312 76.375 -82.40625 C 76.375 -71.332031 71.773438 -63.425781 62.578125 -58.6875 C 78.296875 -55.914062 86.15625 -46.625 86.15625 -30.8125 C 86.15625 -21.53125 82.9375 -14.070312 76.5 -8.4375 C 70.070312 -2.8125 61.234375 0 49.984375 0 L 8.046875 0 Z M 33.234375 -67.265625 L 35.234375 -67.265625 C 40.867188 -67.265625 45.066406 -68.242188 47.828125 -70.203125 C 50.597656 -72.171875 51.984375 -75.390625 51.984375 -79.859375 C 51.984375 -87.367188 46.398438 -91.125 35.234375 -91.125 L 33.234375 -91.125 Z M 33.234375 -19.4375 L 41.140625 -19.4375 C 53.460938 -19.4375 59.625 -23.546875 59.625 -31.765625 C 59.625 -36.671875 58.082031 -40.195312 55 -42.34375 C 51.925781 -44.488281 47.304688 -45.5625 41.140625 -45.5625 L 33.234375 -45.5625 Z M 33.234375 -19.4375 "/></g></g></g><g fill="#13dc86" fill-opacity="1"><g transform="translate(682.974888, 220.649747)"><g><path d="M 3.078125 -55.34375 C 3.078125 -71.332031 8.523438 -84.863281 19.421875 -95.9375 C 30.328125 -107.019531 43.460938 -112.5625 58.828125 -112.5625 C 74.285156 -112.5625 87.414062 -107.046875 98.21875 -96.015625 C 109.03125 -84.984375 114.4375 -71.425781 114.4375 -55.34375 C 114.4375 -39.175781 109.117188 -25.570312 98.484375 -14.53125 C 87.859375 -3.5 74.640625 2.015625 58.828125 2.015625 C 42.660156 2.015625 29.328125 -3.453125 18.828125 -14.390625 C 8.328125 -25.335938 3.078125 -38.988281 3.078125 -55.34375 Z M 30.28125 -55.34375 C 30.28125 -49.53125 31.171875 -44.234375 32.953125 -39.453125 C 34.742188 -34.679688 37.875 -30.640625 42.34375 -27.328125 C 46.8125 -24.023438 52.304688 -22.375 58.828125 -22.375 C 68.203125 -22.375 75.28125 -25.585938 80.0625 -32.015625 C 84.84375 -38.453125 87.234375 -46.226562 87.234375 -55.34375 C 87.234375 -64.363281 84.796875 -72.113281 79.921875 -78.59375 C 75.054688 -85.070312 68.023438 -88.3125 58.828125 -88.3125 C 49.710938 -88.3125 42.675781 -85.070312 37.71875 -78.59375 C 32.757812 -72.113281 30.28125 -64.363281 30.28125 -55.34375 Z M 30.28125 -55.34375 "/></g></g></g><g fill="#13dc86" fill-opacity="1"><g transform="translate(800.486098, 220.649747)"><g><path d="M 1.078125 -88.4375 L 1.078125 -110.546875 L 78.796875 -110.546875 L 78.796875 -88.4375 L 52.53125 -88.4375 L 52.53125 0 L 27.34375 0 L 27.34375 -88.4375 Z M 1.078125 -88.4375 "/></g></g></g></svg>